<mxfile host="app.diagrams.net" modified="2024-06-29T06:24:25.346Z" agent="Mozilla/5.0 (Macintosh; Intel Mac OS X 10_15_7) AppleWebKit/537.36 (KHTML, like Gecko) Chrome/126.0.0.0 Safari/537.36" etag="SjIZdYLmBJU5_pYZeWUX" version="24.6.4" type="github">
  <diagram name="Page-1" id="10a91c8b-09ff-31b1-d368-03940ed4cc9e">
    <mxGraphModel dx="3887" dy="5451" grid="1" gridSize="10" guides="1" tooltips="1" connect="1" arrows="1" fold="1" page="1" pageScale="1" pageWidth="2700" pageHeight="4700" background="none" math="0" shadow="0">
      <root>
        <mxCell id="0" />
        <mxCell id="1" parent="0" />
        <mxCell id="4uRc20owQ4Cgfs499pXH-1" value="" style="whiteSpace=wrap;html=1;aspect=fixed;container=0;" vertex="1" parent="1">
          <mxGeometry x="2436" y="4596" width="80" height="80" as="geometry" />
        </mxCell>
        <mxCell id="4uRc20owQ4Cgfs499pXH-2" value="&lt;div&gt;Z&lt;/div&gt;0.0055" style="text;html=1;align=center;verticalAlign=middle;whiteSpace=wrap;rounded=0;container=0;" vertex="1" parent="1">
          <mxGeometry x="2446" y="4621" width="60" height="30" as="geometry" />
        </mxCell>
        <mxCell id="4uRc20owQ4Cgfs499pXH-3" value="" style="whiteSpace=wrap;html=1;aspect=fixed;container=0;" vertex="1" parent="1">
          <mxGeometry x="2556" y="4596" width="80" height="80" as="geometry" />
        </mxCell>
        <mxCell id="4uRc20owQ4Cgfs499pXH-4" value="&lt;div&gt;X&lt;/div&gt;0.0075" style="text;html=1;align=center;verticalAlign=middle;whiteSpace=wrap;rounded=0;container=0;" vertex="1" parent="1">
          <mxGeometry x="2566" y="4621" width="60" height="30" as="geometry" />
        </mxCell>
        <mxCell id="4uRc20owQ4Cgfs499pXH-5" value="" style="ellipse;whiteSpace=wrap;html=1;aspect=fixed;container=0;" vertex="1" parent="1">
          <mxGeometry x="2496" y="4470" width="80" height="80" as="geometry" />
        </mxCell>
        <mxCell id="4uRc20owQ4Cgfs499pXH-6" value="0.013" style="text;html=1;align=center;verticalAlign=middle;whiteSpace=wrap;rounded=0;container=0;" vertex="1" parent="1">
          <mxGeometry x="2506" y="4495" width="60" height="30" as="geometry" />
        </mxCell>
        <mxCell id="4uRc20owQ4Cgfs499pXH-7" value="" style="endArrow=none;rounded=0;entryX=0;entryY=1;entryDx=0;entryDy=0;exitX=0.5;exitY=0;exitDx=0;exitDy=0;labelPosition=left;verticalLabelPosition=middle;align=right;verticalAlign=middle;html=1;" edge="1" parent="1" source="4uRc20owQ4Cgfs499pXH-1" target="4uRc20owQ4Cgfs499pXH-5">
          <mxGeometry width="50" height="50" relative="1" as="geometry">
            <mxPoint x="2836" y="4506" as="sourcePoint" />
            <mxPoint x="2886" y="4456" as="targetPoint" />
          </mxGeometry>
        </mxCell>
        <mxCell id="4uRc20owQ4Cgfs499pXH-8" value="" style="endArrow=none;html=1;rounded=0;entryX=1;entryY=1;entryDx=0;entryDy=0;exitX=0.5;exitY=0;exitDx=0;exitDy=0;" edge="1" parent="1" source="4uRc20owQ4Cgfs499pXH-3" target="4uRc20owQ4Cgfs499pXH-5">
          <mxGeometry width="50" height="50" relative="1" as="geometry">
            <mxPoint x="2556" y="4596" as="sourcePoint" />
            <mxPoint x="2606" y="4546" as="targetPoint" />
          </mxGeometry>
        </mxCell>
        <mxCell id="4uRc20owQ4Cgfs499pXH-9" value="" style="whiteSpace=wrap;html=1;aspect=fixed;container=0;" vertex="1" parent="1">
          <mxGeometry x="2355" y="4470" width="80" height="80" as="geometry" />
        </mxCell>
        <mxCell id="4uRc20owQ4Cgfs499pXH-10" value="&lt;div&gt;Q&lt;/div&gt;0.0115" style="text;html=1;align=center;verticalAlign=middle;whiteSpace=wrap;rounded=0;container=0;" vertex="1" parent="1">
          <mxGeometry x="2365" y="4495" width="60" height="30" as="geometry" />
        </mxCell>
        <mxCell id="4uRc20owQ4Cgfs499pXH-11" value="" style="whiteSpace=wrap;html=1;aspect=fixed;container=0;" vertex="1" parent="1">
          <mxGeometry x="2588" y="4350" width="80" height="80" as="geometry" />
        </mxCell>
        <mxCell id="4uRc20owQ4Cgfs499pXH-12" value="&lt;div&gt;V&lt;/div&gt;0.0306" style="text;html=1;align=center;verticalAlign=middle;whiteSpace=wrap;rounded=0;container=0;" vertex="1" parent="1">
          <mxGeometry x="2598" y="4375" width="60" height="30" as="geometry" />
        </mxCell>
        <mxCell id="4uRc20owQ4Cgfs499pXH-15" value="" style="whiteSpace=wrap;html=1;aspect=fixed;container=0;" vertex="1" parent="1">
          <mxGeometry x="2325" y="4220" width="80" height="80" as="geometry" />
        </mxCell>
        <mxCell id="4uRc20owQ4Cgfs499pXH-16" value="&lt;div&gt;K&lt;/div&gt;0.0459" style="text;html=1;align=center;verticalAlign=middle;whiteSpace=wrap;rounded=0;container=0;" vertex="1" parent="1">
          <mxGeometry x="2335" y="4245" width="60" height="30" as="geometry" />
        </mxCell>
        <mxCell id="4uRc20owQ4Cgfs499pXH-17" value="" style="whiteSpace=wrap;html=1;aspect=fixed;container=0;" vertex="1" parent="1">
          <mxGeometry x="2255" y="4090" width="80" height="80" as="geometry" />
        </mxCell>
        <mxCell id="4uRc20owQ4Cgfs499pXH-18" value="&lt;div&gt;q&lt;/div&gt;0.0534" style="text;html=1;align=center;verticalAlign=middle;whiteSpace=wrap;rounded=0;container=0;" vertex="1" parent="1">
          <mxGeometry x="2265" y="4115" width="60" height="30" as="geometry" />
        </mxCell>
        <mxCell id="4uRc20owQ4Cgfs499pXH-19" value="" style="ellipse;whiteSpace=wrap;html=1;aspect=fixed;container=0;" vertex="1" parent="1">
          <mxGeometry x="2426" y="4350" width="80" height="80" as="geometry" />
        </mxCell>
        <mxCell id="4uRc20owQ4Cgfs499pXH-20" value="0.0245" style="text;html=1;align=center;verticalAlign=middle;whiteSpace=wrap;rounded=0;container=0;" vertex="1" parent="1">
          <mxGeometry x="2436" y="4375" width="60" height="30" as="geometry" />
        </mxCell>
        <mxCell id="4uRc20owQ4Cgfs499pXH-21" value="" style="endArrow=none;html=1;rounded=0;entryX=0;entryY=1;entryDx=0;entryDy=0;exitX=0.5;exitY=0;exitDx=0;exitDy=0;" edge="1" parent="1" source="4uRc20owQ4Cgfs499pXH-9" target="4uRc20owQ4Cgfs499pXH-19">
          <mxGeometry width="50" height="50" relative="1" as="geometry">
            <mxPoint x="2406" y="4520" as="sourcePoint" />
            <mxPoint x="2456" y="4470" as="targetPoint" />
          </mxGeometry>
        </mxCell>
        <mxCell id="4uRc20owQ4Cgfs499pXH-22" value="" style="endArrow=none;html=1;rounded=0;entryX=1;entryY=1;entryDx=0;entryDy=0;exitX=0.5;exitY=0;exitDx=0;exitDy=0;" edge="1" parent="1" source="4uRc20owQ4Cgfs499pXH-5" target="4uRc20owQ4Cgfs499pXH-19">
          <mxGeometry width="50" height="50" relative="1" as="geometry">
            <mxPoint x="2406" y="4520" as="sourcePoint" />
            <mxPoint x="2456" y="4470" as="targetPoint" />
          </mxGeometry>
        </mxCell>
        <mxCell id="4uRc20owQ4Cgfs499pXH-23" value="" style="ellipse;whiteSpace=wrap;html=1;aspect=fixed;container=0;" vertex="1" parent="1">
          <mxGeometry x="2506" y="4220" width="80" height="80" as="geometry" />
        </mxCell>
        <mxCell id="4uRc20owQ4Cgfs499pXH-24" value="0.0551" style="text;html=1;align=center;verticalAlign=middle;whiteSpace=wrap;rounded=0;container=0;" vertex="1" parent="1">
          <mxGeometry x="2516" y="4245" width="60" height="30" as="geometry" />
        </mxCell>
        <mxCell id="4uRc20owQ4Cgfs499pXH-25" value="" style="endArrow=none;html=1;rounded=0;entryX=0;entryY=1;entryDx=0;entryDy=0;exitX=0.5;exitY=0;exitDx=0;exitDy=0;" edge="1" parent="1" source="4uRc20owQ4Cgfs499pXH-19" target="4uRc20owQ4Cgfs499pXH-23">
          <mxGeometry width="50" height="50" relative="1" as="geometry">
            <mxPoint x="2406" y="4520" as="sourcePoint" />
            <mxPoint x="2456" y="4470" as="targetPoint" />
          </mxGeometry>
        </mxCell>
        <mxCell id="4uRc20owQ4Cgfs499pXH-26" value="" style="endArrow=none;html=1;rounded=0;entryX=1;entryY=1;entryDx=0;entryDy=0;exitX=0.5;exitY=0;exitDx=0;exitDy=0;" edge="1" parent="1" source="4uRc20owQ4Cgfs499pXH-11" target="4uRc20owQ4Cgfs499pXH-23">
          <mxGeometry width="50" height="50" relative="1" as="geometry">
            <mxPoint x="2406" y="4520" as="sourcePoint" />
            <mxPoint x="2456" y="4470" as="targetPoint" />
          </mxGeometry>
        </mxCell>
        <mxCell id="4uRc20owQ4Cgfs499pXH-27" value="" style="ellipse;whiteSpace=wrap;html=1;aspect=fixed;container=0;" vertex="1" parent="1">
          <mxGeometry x="2416" y="4090" width="80" height="80" as="geometry" />
        </mxCell>
        <mxCell id="4uRc20owQ4Cgfs499pXH-28" value="0.101" style="text;html=1;align=center;verticalAlign=middle;whiteSpace=wrap;rounded=0;container=0;" vertex="1" parent="1">
          <mxGeometry x="2426" y="4115" width="60" height="30" as="geometry" />
        </mxCell>
        <mxCell id="4uRc20owQ4Cgfs499pXH-30" value="" style="endArrow=none;html=1;rounded=0;entryX=0;entryY=1;entryDx=0;entryDy=0;exitX=0.5;exitY=0;exitDx=0;exitDy=0;" edge="1" parent="1" source="4uRc20owQ4Cgfs499pXH-15" target="4uRc20owQ4Cgfs499pXH-27">
          <mxGeometry width="50" height="50" relative="1" as="geometry">
            <mxPoint x="2406" y="4430" as="sourcePoint" />
            <mxPoint x="2456" y="4380" as="targetPoint" />
          </mxGeometry>
        </mxCell>
        <mxCell id="4uRc20owQ4Cgfs499pXH-31" value="" style="endArrow=none;html=1;rounded=0;entryX=1;entryY=1;entryDx=0;entryDy=0;exitX=0.5;exitY=0;exitDx=0;exitDy=0;" edge="1" parent="1" source="4uRc20owQ4Cgfs499pXH-23" target="4uRc20owQ4Cgfs499pXH-27">
          <mxGeometry width="50" height="50" relative="1" as="geometry">
            <mxPoint x="2406" y="4430" as="sourcePoint" />
            <mxPoint x="2456" y="4380" as="targetPoint" />
          </mxGeometry>
        </mxCell>
        <mxCell id="4uRc20owQ4Cgfs499pXH-34" style="rounded=0;orthogonalLoop=1;jettySize=auto;html=1;exitX=0;exitY=1;exitDx=0;exitDy=0;entryX=0.5;entryY=0;entryDx=0;entryDy=0;endArrow=none;endFill=0;" edge="1" parent="1" source="4uRc20owQ4Cgfs499pXH-32" target="4uRc20owQ4Cgfs499pXH-17">
          <mxGeometry relative="1" as="geometry" />
        </mxCell>
        <mxCell id="4uRc20owQ4Cgfs499pXH-35" style="rounded=0;orthogonalLoop=1;jettySize=auto;html=1;exitX=1;exitY=1;exitDx=0;exitDy=0;entryX=0.5;entryY=0;entryDx=0;entryDy=0;endArrow=none;endFill=0;" edge="1" parent="1" source="4uRc20owQ4Cgfs499pXH-32" target="4uRc20owQ4Cgfs499pXH-27">
          <mxGeometry relative="1" as="geometry" />
        </mxCell>
        <mxCell id="4uRc20owQ4Cgfs499pXH-32" value="" style="ellipse;whiteSpace=wrap;html=1;aspect=fixed;container=0;" vertex="1" parent="1">
          <mxGeometry x="2336" y="3950" width="80" height="80" as="geometry" />
        </mxCell>
        <mxCell id="4uRc20owQ4Cgfs499pXH-33" value="0.1544" style="text;html=1;align=center;verticalAlign=middle;whiteSpace=wrap;rounded=0;container=0;" vertex="1" parent="1">
          <mxGeometry x="2346" y="3975" width="60" height="30" as="geometry" />
        </mxCell>
        <mxCell id="4uRc20owQ4Cgfs499pXH-40" value="" style="whiteSpace=wrap;html=1;aspect=fixed;container=0;" vertex="1" parent="1">
          <mxGeometry x="2195" y="3950" width="80" height="80" as="geometry" />
        </mxCell>
        <mxCell id="4uRc20owQ4Cgfs499pXH-41" value="&lt;div&gt;U&lt;/div&gt;0.0566" style="text;html=1;align=center;verticalAlign=middle;whiteSpace=wrap;rounded=0;container=0;" vertex="1" parent="1">
          <mxGeometry x="2205" y="3975" width="60" height="30" as="geometry" />
        </mxCell>
        <mxCell id="4uRc20owQ4Cgfs499pXH-42" value="" style="ellipse;whiteSpace=wrap;html=1;aspect=fixed;container=0;" vertex="1" parent="1">
          <mxGeometry x="2266" y="3830" width="80" height="80" as="geometry" />
        </mxCell>
        <mxCell id="4uRc20owQ4Cgfs499pXH-43" value="0.211" style="text;html=1;align=center;verticalAlign=middle;whiteSpace=wrap;rounded=0;container=0;" vertex="1" parent="1">
          <mxGeometry x="2276" y="3855" width="60" height="30" as="geometry" />
        </mxCell>
        <mxCell id="4uRc20owQ4Cgfs499pXH-44" value="" style="endArrow=none;html=1;rounded=0;entryX=0;entryY=1;entryDx=0;entryDy=0;exitX=0.5;exitY=0;exitDx=0;exitDy=0;" edge="1" parent="1" source="4uRc20owQ4Cgfs499pXH-40" target="4uRc20owQ4Cgfs499pXH-42">
          <mxGeometry width="50" height="50" relative="1" as="geometry">
            <mxPoint x="2246" y="4000" as="sourcePoint" />
            <mxPoint x="2296" y="3950" as="targetPoint" />
          </mxGeometry>
        </mxCell>
        <mxCell id="4uRc20owQ4Cgfs499pXH-45" value="" style="endArrow=none;html=1;rounded=0;entryX=1;entryY=1;entryDx=0;entryDy=0;exitX=0.5;exitY=0;exitDx=0;exitDy=0;" edge="1" parent="1" target="4uRc20owQ4Cgfs499pXH-42">
          <mxGeometry width="50" height="50" relative="1" as="geometry">
            <mxPoint x="2376" y="3950" as="sourcePoint" />
            <mxPoint x="2296" y="3950" as="targetPoint" />
          </mxGeometry>
        </mxCell>
        <mxCell id="4uRc20owQ4Cgfs499pXH-46" value="" style="whiteSpace=wrap;html=1;aspect=fixed;container=0;" vertex="1" parent="1">
          <mxGeometry x="2125" y="3830" width="80" height="80" as="geometry" />
        </mxCell>
        <mxCell id="4uRc20owQ4Cgfs499pXH-47" value="&lt;div&gt;j&lt;/div&gt;0.0648" style="text;html=1;align=center;verticalAlign=middle;whiteSpace=wrap;rounded=0;container=0;" vertex="1" parent="1">
          <mxGeometry x="2135" y="3855" width="60" height="30" as="geometry" />
        </mxCell>
        <mxCell id="4uRc20owQ4Cgfs499pXH-48" value="" style="ellipse;whiteSpace=wrap;html=1;aspect=fixed;container=0;" vertex="1" parent="1">
          <mxGeometry x="2196" y="3710" width="80" height="80" as="geometry" />
        </mxCell>
        <mxCell id="4uRc20owQ4Cgfs499pXH-49" value="0.2758" style="text;html=1;align=center;verticalAlign=middle;whiteSpace=wrap;rounded=0;container=0;" vertex="1" parent="1">
          <mxGeometry x="2206" y="3735" width="60" height="30" as="geometry" />
        </mxCell>
        <mxCell id="4uRc20owQ4Cgfs499pXH-50" value="" style="endArrow=none;html=1;rounded=0;entryX=0;entryY=1;entryDx=0;entryDy=0;exitX=0.5;exitY=0;exitDx=0;exitDy=0;" edge="1" parent="1" source="4uRc20owQ4Cgfs499pXH-46" target="4uRc20owQ4Cgfs499pXH-48">
          <mxGeometry width="50" height="50" relative="1" as="geometry">
            <mxPoint x="2176" y="3880" as="sourcePoint" />
            <mxPoint x="2226" y="3830" as="targetPoint" />
          </mxGeometry>
        </mxCell>
        <mxCell id="4uRc20owQ4Cgfs499pXH-51" value="" style="endArrow=none;html=1;rounded=0;entryX=1;entryY=1;entryDx=0;entryDy=0;exitX=0.5;exitY=0;exitDx=0;exitDy=0;" edge="1" parent="1" target="4uRc20owQ4Cgfs499pXH-48">
          <mxGeometry width="50" height="50" relative="1" as="geometry">
            <mxPoint x="2306" y="3830" as="sourcePoint" />
            <mxPoint x="2226" y="3830" as="targetPoint" />
          </mxGeometry>
        </mxCell>
        <mxCell id="4uRc20owQ4Cgfs499pXH-52" value="" style="whiteSpace=wrap;html=1;aspect=fixed;container=0;" vertex="1" parent="1">
          <mxGeometry x="2054" y="3710" width="80" height="80" as="geometry" />
        </mxCell>
        <mxCell id="4uRc20owQ4Cgfs499pXH-53" value="&lt;div&gt;z&lt;/div&gt;0.0654" style="text;html=1;align=center;verticalAlign=middle;whiteSpace=wrap;rounded=0;container=0;" vertex="1" parent="1">
          <mxGeometry x="2064" y="3735" width="60" height="30" as="geometry" />
        </mxCell>
        <mxCell id="4uRc20owQ4Cgfs499pXH-54" value="" style="ellipse;whiteSpace=wrap;html=1;aspect=fixed;container=0;" vertex="1" parent="1">
          <mxGeometry x="2125" y="3590" width="80" height="80" as="geometry" />
        </mxCell>
        <mxCell id="4uRc20owQ4Cgfs499pXH-55" value="0.3412" style="text;html=1;align=center;verticalAlign=middle;whiteSpace=wrap;rounded=0;container=0;" vertex="1" parent="1">
          <mxGeometry x="2135" y="3615" width="60" height="30" as="geometry" />
        </mxCell>
        <mxCell id="4uRc20owQ4Cgfs499pXH-56" value="" style="endArrow=none;html=1;rounded=0;entryX=0;entryY=1;entryDx=0;entryDy=0;exitX=0.5;exitY=0;exitDx=0;exitDy=0;" edge="1" parent="1" source="4uRc20owQ4Cgfs499pXH-52" target="4uRc20owQ4Cgfs499pXH-54">
          <mxGeometry width="50" height="50" relative="1" as="geometry">
            <mxPoint x="2105" y="3760" as="sourcePoint" />
            <mxPoint x="2155" y="3710" as="targetPoint" />
          </mxGeometry>
        </mxCell>
        <mxCell id="4uRc20owQ4Cgfs499pXH-57" value="" style="endArrow=none;html=1;rounded=0;entryX=1;entryY=1;entryDx=0;entryDy=0;exitX=0.5;exitY=0;exitDx=0;exitDy=0;" edge="1" parent="1" target="4uRc20owQ4Cgfs499pXH-54">
          <mxGeometry width="50" height="50" relative="1" as="geometry">
            <mxPoint x="2235" y="3710" as="sourcePoint" />
            <mxPoint x="2155" y="3710" as="targetPoint" />
          </mxGeometry>
        </mxCell>
        <mxCell id="4uRc20owQ4Cgfs499pXH-58" value="" style="whiteSpace=wrap;html=1;aspect=fixed;container=0;" vertex="1" parent="1">
          <mxGeometry x="1980" y="3590" width="80" height="80" as="geometry" />
        </mxCell>
        <mxCell id="4uRc20owQ4Cgfs499pXH-59" value="&lt;div&gt;J&lt;/div&gt;0.0775" style="text;html=1;align=center;verticalAlign=middle;whiteSpace=wrap;rounded=0;container=0;" vertex="1" parent="1">
          <mxGeometry x="1990" y="3615" width="60" height="30" as="geometry" />
        </mxCell>
        <mxCell id="4uRc20owQ4Cgfs499pXH-60" value="" style="ellipse;whiteSpace=wrap;html=1;aspect=fixed;container=0;" vertex="1" parent="1">
          <mxGeometry x="2051" y="3470" width="80" height="80" as="geometry" />
        </mxCell>
        <mxCell id="4uRc20owQ4Cgfs499pXH-61" value="0.4187" style="text;html=1;align=center;verticalAlign=middle;whiteSpace=wrap;rounded=0;container=0;" vertex="1" parent="1">
          <mxGeometry x="2061" y="3495" width="60" height="30" as="geometry" />
        </mxCell>
        <mxCell id="4uRc20owQ4Cgfs499pXH-62" value="" style="endArrow=none;html=1;rounded=0;entryX=0;entryY=1;entryDx=0;entryDy=0;exitX=0.5;exitY=0;exitDx=0;exitDy=0;" edge="1" parent="1" source="4uRc20owQ4Cgfs499pXH-58" target="4uRc20owQ4Cgfs499pXH-60">
          <mxGeometry width="50" height="50" relative="1" as="geometry">
            <mxPoint x="2031" y="3640" as="sourcePoint" />
            <mxPoint x="2081" y="3590" as="targetPoint" />
          </mxGeometry>
        </mxCell>
        <mxCell id="4uRc20owQ4Cgfs499pXH-63" value="" style="endArrow=none;html=1;rounded=0;entryX=1;entryY=1;entryDx=0;entryDy=0;exitX=0.5;exitY=0;exitDx=0;exitDy=0;" edge="1" parent="1" target="4uRc20owQ4Cgfs499pXH-60">
          <mxGeometry width="50" height="50" relative="1" as="geometry">
            <mxPoint x="2161" y="3590" as="sourcePoint" />
            <mxPoint x="2081" y="3590" as="targetPoint" />
          </mxGeometry>
        </mxCell>
        <mxCell id="4uRc20owQ4Cgfs499pXH-64" value="" style="whiteSpace=wrap;html=1;aspect=fixed;container=0;" vertex="1" parent="1">
          <mxGeometry x="1910" y="3470" width="80" height="80" as="geometry" />
        </mxCell>
        <mxCell id="4uRc20owQ4Cgfs499pXH-65" value="&lt;div&gt;G&lt;/div&gt;0.0918" style="text;html=1;align=center;verticalAlign=middle;whiteSpace=wrap;rounded=0;container=0;" vertex="1" parent="1">
          <mxGeometry x="1920" y="3495" width="60" height="30" as="geometry" />
        </mxCell>
        <mxCell id="4uRc20owQ4Cgfs499pXH-66" value="" style="ellipse;whiteSpace=wrap;html=1;aspect=fixed;container=0;" vertex="1" parent="1">
          <mxGeometry x="1981" y="3350" width="80" height="80" as="geometry" />
        </mxCell>
        <mxCell id="4uRc20owQ4Cgfs499pXH-67" value="0.5105" style="text;html=1;align=center;verticalAlign=middle;whiteSpace=wrap;rounded=0;container=0;" vertex="1" parent="1">
          <mxGeometry x="1991" y="3375" width="60" height="30" as="geometry" />
        </mxCell>
        <mxCell id="4uRc20owQ4Cgfs499pXH-68" value="" style="endArrow=none;html=1;rounded=0;entryX=0;entryY=1;entryDx=0;entryDy=0;exitX=0.5;exitY=0;exitDx=0;exitDy=0;" edge="1" parent="1" source="4uRc20owQ4Cgfs499pXH-64" target="4uRc20owQ4Cgfs499pXH-66">
          <mxGeometry width="50" height="50" relative="1" as="geometry">
            <mxPoint x="1961" y="3520" as="sourcePoint" />
            <mxPoint x="2011" y="3470" as="targetPoint" />
          </mxGeometry>
        </mxCell>
        <mxCell id="4uRc20owQ4Cgfs499pXH-69" value="" style="endArrow=none;html=1;rounded=0;entryX=1;entryY=1;entryDx=0;entryDy=0;exitX=0.5;exitY=0;exitDx=0;exitDy=0;" edge="1" parent="1" target="4uRc20owQ4Cgfs499pXH-66">
          <mxGeometry width="50" height="50" relative="1" as="geometry">
            <mxPoint x="2091" y="3470" as="sourcePoint" />
            <mxPoint x="2011" y="3470" as="targetPoint" />
          </mxGeometry>
        </mxCell>
        <mxCell id="4uRc20owQ4Cgfs499pXH-70" value="" style="whiteSpace=wrap;html=1;aspect=fixed;container=0;" vertex="1" parent="1">
          <mxGeometry x="1840" y="3350" width="80" height="80" as="geometry" />
        </mxCell>
        <mxCell id="4uRc20owQ4Cgfs499pXH-71" value="&lt;div&gt;Y&lt;/div&gt;0.0928" style="text;html=1;align=center;verticalAlign=middle;whiteSpace=wrap;rounded=0;container=0;" vertex="1" parent="1">
          <mxGeometry x="1850" y="3375" width="60" height="30" as="geometry" />
        </mxCell>
        <mxCell id="4uRc20owQ4Cgfs499pXH-72" value="" style="ellipse;whiteSpace=wrap;html=1;aspect=fixed;container=0;" vertex="1" parent="1">
          <mxGeometry x="1911" y="3230" width="80" height="80" as="geometry" />
        </mxCell>
        <mxCell id="4uRc20owQ4Cgfs499pXH-73" value="0.6033" style="text;html=1;align=center;verticalAlign=middle;whiteSpace=wrap;rounded=0;container=0;" vertex="1" parent="1">
          <mxGeometry x="1921" y="3255" width="60" height="30" as="geometry" />
        </mxCell>
        <mxCell id="4uRc20owQ4Cgfs499pXH-74" value="" style="endArrow=none;html=1;rounded=0;entryX=0;entryY=1;entryDx=0;entryDy=0;exitX=0.5;exitY=0;exitDx=0;exitDy=0;" edge="1" parent="1" source="4uRc20owQ4Cgfs499pXH-70" target="4uRc20owQ4Cgfs499pXH-72">
          <mxGeometry width="50" height="50" relative="1" as="geometry">
            <mxPoint x="1891" y="3400" as="sourcePoint" />
            <mxPoint x="1941" y="3350" as="targetPoint" />
          </mxGeometry>
        </mxCell>
        <mxCell id="4uRc20owQ4Cgfs499pXH-75" value="" style="endArrow=none;html=1;rounded=0;entryX=1;entryY=1;entryDx=0;entryDy=0;exitX=0.5;exitY=0;exitDx=0;exitDy=0;" edge="1" parent="1" target="4uRc20owQ4Cgfs499pXH-72">
          <mxGeometry width="50" height="50" relative="1" as="geometry">
            <mxPoint x="2021" y="3350" as="sourcePoint" />
            <mxPoint x="1941" y="3350" as="targetPoint" />
          </mxGeometry>
        </mxCell>
        <mxCell id="4uRc20owQ4Cgfs499pXH-82" value="" style="whiteSpace=wrap;html=1;aspect=fixed;container=0;" vertex="1" parent="1">
          <mxGeometry x="1770" y="3230" width="80" height="80" as="geometry" />
        </mxCell>
        <mxCell id="4uRc20owQ4Cgfs499pXH-83" value="&lt;div&gt;F&lt;/div&gt;0.0992" style="text;html=1;align=center;verticalAlign=middle;whiteSpace=wrap;rounded=0;container=0;" vertex="1" parent="1">
          <mxGeometry x="1780" y="3255" width="60" height="30" as="geometry" />
        </mxCell>
        <mxCell id="4uRc20owQ4Cgfs499pXH-84" value="" style="ellipse;whiteSpace=wrap;html=1;aspect=fixed;container=0;" vertex="1" parent="1">
          <mxGeometry x="1841" y="3110" width="80" height="80" as="geometry" />
        </mxCell>
        <mxCell id="4uRc20owQ4Cgfs499pXH-85" value="0.7025" style="text;html=1;align=center;verticalAlign=middle;whiteSpace=wrap;rounded=0;container=0;" vertex="1" parent="1">
          <mxGeometry x="1851" y="3135" width="60" height="30" as="geometry" />
        </mxCell>
        <mxCell id="4uRc20owQ4Cgfs499pXH-86" value="" style="endArrow=none;html=1;rounded=0;entryX=0;entryY=1;entryDx=0;entryDy=0;exitX=0.5;exitY=0;exitDx=0;exitDy=0;" edge="1" parent="1" source="4uRc20owQ4Cgfs499pXH-82" target="4uRc20owQ4Cgfs499pXH-84">
          <mxGeometry width="50" height="50" relative="1" as="geometry">
            <mxPoint x="1821" y="3280" as="sourcePoint" />
            <mxPoint x="1871" y="3230" as="targetPoint" />
          </mxGeometry>
        </mxCell>
        <mxCell id="4uRc20owQ4Cgfs499pXH-87" value="" style="endArrow=none;html=1;rounded=0;entryX=1;entryY=1;entryDx=0;entryDy=0;exitX=0.5;exitY=0;exitDx=0;exitDy=0;" edge="1" parent="1" target="4uRc20owQ4Cgfs499pXH-84">
          <mxGeometry width="50" height="50" relative="1" as="geometry">
            <mxPoint x="1951" y="3230" as="sourcePoint" />
            <mxPoint x="1871" y="3230" as="targetPoint" />
          </mxGeometry>
        </mxCell>
        <mxCell id="4uRc20owQ4Cgfs499pXH-76" value="" style="whiteSpace=wrap;html=1;aspect=fixed;container=0;" vertex="1" parent="1">
          <mxGeometry x="1700" y="3110" width="80" height="80" as="geometry" />
        </mxCell>
        <mxCell id="4uRc20owQ4Cgfs499pXH-77" value="&lt;div&gt;O&lt;/div&gt;0.1041" style="text;html=1;align=center;verticalAlign=middle;whiteSpace=wrap;rounded=0;container=0;" vertex="1" parent="1">
          <mxGeometry x="1710" y="3135" width="60" height="30" as="geometry" />
        </mxCell>
        <mxCell id="4uRc20owQ4Cgfs499pXH-78" value="" style="ellipse;whiteSpace=wrap;html=1;aspect=fixed;container=0;" vertex="1" parent="1">
          <mxGeometry x="1771" y="2990" width="80" height="80" as="geometry" />
        </mxCell>
        <mxCell id="4uRc20owQ4Cgfs499pXH-79" value="0.8066" style="text;html=1;align=center;verticalAlign=middle;whiteSpace=wrap;rounded=0;container=0;" vertex="1" parent="1">
          <mxGeometry x="1781" y="3015" width="60" height="30" as="geometry" />
        </mxCell>
        <mxCell id="4uRc20owQ4Cgfs499pXH-80" value="" style="endArrow=none;html=1;rounded=0;entryX=0;entryY=1;entryDx=0;entryDy=0;exitX=0.5;exitY=0;exitDx=0;exitDy=0;" edge="1" parent="1" source="4uRc20owQ4Cgfs499pXH-76" target="4uRc20owQ4Cgfs499pXH-78">
          <mxGeometry width="50" height="50" relative="1" as="geometry">
            <mxPoint x="1751" y="3160" as="sourcePoint" />
            <mxPoint x="1801" y="3110" as="targetPoint" />
          </mxGeometry>
        </mxCell>
        <mxCell id="4uRc20owQ4Cgfs499pXH-81" value="" style="endArrow=none;html=1;rounded=0;entryX=1;entryY=1;entryDx=0;entryDy=0;exitX=0.5;exitY=0;exitDx=0;exitDy=0;" edge="1" parent="1" target="4uRc20owQ4Cgfs499pXH-78">
          <mxGeometry width="50" height="50" relative="1" as="geometry">
            <mxPoint x="1881" y="3110" as="sourcePoint" />
            <mxPoint x="1801" y="3110" as="targetPoint" />
          </mxGeometry>
        </mxCell>
        <mxCell id="4uRc20owQ4Cgfs499pXH-90" value="" style="whiteSpace=wrap;html=1;aspect=fixed;container=0;" vertex="1" parent="1">
          <mxGeometry x="1630" y="2990" width="80" height="80" as="geometry" />
        </mxCell>
        <mxCell id="4uRc20owQ4Cgfs499pXH-91" value="&lt;div&gt;L&lt;/div&gt;0.1053" style="text;html=1;align=center;verticalAlign=middle;whiteSpace=wrap;rounded=0;container=0;" vertex="1" parent="1">
          <mxGeometry x="1640" y="3015" width="60" height="30" as="geometry" />
        </mxCell>
        <mxCell id="4uRc20owQ4Cgfs499pXH-92" value="" style="ellipse;whiteSpace=wrap;html=1;aspect=fixed;container=0;" vertex="1" parent="1">
          <mxGeometry x="1701" y="2870" width="80" height="80" as="geometry" />
        </mxCell>
        <mxCell id="4uRc20owQ4Cgfs499pXH-93" value="0.9119" style="text;html=1;align=center;verticalAlign=middle;whiteSpace=wrap;rounded=0;container=0;" vertex="1" parent="1">
          <mxGeometry x="1711" y="2895" width="60" height="30" as="geometry" />
        </mxCell>
        <mxCell id="4uRc20owQ4Cgfs499pXH-94" value="" style="endArrow=none;html=1;rounded=0;entryX=0;entryY=1;entryDx=0;entryDy=0;exitX=0.5;exitY=0;exitDx=0;exitDy=0;" edge="1" parent="1" source="4uRc20owQ4Cgfs499pXH-90" target="4uRc20owQ4Cgfs499pXH-92">
          <mxGeometry width="50" height="50" relative="1" as="geometry">
            <mxPoint x="1681" y="3040" as="sourcePoint" />
            <mxPoint x="1731" y="2990" as="targetPoint" />
          </mxGeometry>
        </mxCell>
        <mxCell id="4uRc20owQ4Cgfs499pXH-95" value="" style="endArrow=none;html=1;rounded=0;entryX=1;entryY=1;entryDx=0;entryDy=0;exitX=0.5;exitY=0;exitDx=0;exitDy=0;" edge="1" parent="1" target="4uRc20owQ4Cgfs499pXH-92">
          <mxGeometry width="50" height="50" relative="1" as="geometry">
            <mxPoint x="1811" y="2990" as="sourcePoint" />
            <mxPoint x="1731" y="2990" as="targetPoint" />
          </mxGeometry>
        </mxCell>
        <mxCell id="4uRc20owQ4Cgfs499pXH-96" value="" style="whiteSpace=wrap;html=1;aspect=fixed;container=0;" vertex="1" parent="1">
          <mxGeometry x="1560" y="2870" width="80" height="80" as="geometry" />
        </mxCell>
        <mxCell id="4uRc20owQ4Cgfs499pXH-97" value="&lt;div&gt;W&lt;/div&gt;0.1055" style="text;html=1;align=center;verticalAlign=middle;whiteSpace=wrap;rounded=0;container=0;" vertex="1" parent="1">
          <mxGeometry x="1570" y="2895" width="60" height="30" as="geometry" />
        </mxCell>
        <mxCell id="4uRc20owQ4Cgfs499pXH-98" value="" style="ellipse;whiteSpace=wrap;html=1;aspect=fixed;container=0;" vertex="1" parent="1">
          <mxGeometry x="1631" y="2750" width="80" height="80" as="geometry" />
        </mxCell>
        <mxCell id="4uRc20owQ4Cgfs499pXH-99" value="1.0174" style="text;html=1;align=center;verticalAlign=middle;whiteSpace=wrap;rounded=0;container=0;" vertex="1" parent="1">
          <mxGeometry x="1641" y="2775" width="60" height="30" as="geometry" />
        </mxCell>
        <mxCell id="4uRc20owQ4Cgfs499pXH-100" value="" style="endArrow=none;html=1;rounded=0;entryX=0;entryY=1;entryDx=0;entryDy=0;exitX=0.5;exitY=0;exitDx=0;exitDy=0;" edge="1" parent="1" source="4uRc20owQ4Cgfs499pXH-96" target="4uRc20owQ4Cgfs499pXH-98">
          <mxGeometry width="50" height="50" relative="1" as="geometry">
            <mxPoint x="1611" y="2920" as="sourcePoint" />
            <mxPoint x="1661" y="2870" as="targetPoint" />
          </mxGeometry>
        </mxCell>
        <mxCell id="4uRc20owQ4Cgfs499pXH-101" value="" style="endArrow=none;html=1;rounded=0;entryX=1;entryY=1;entryDx=0;entryDy=0;exitX=0.5;exitY=0;exitDx=0;exitDy=0;" edge="1" parent="1" target="4uRc20owQ4Cgfs499pXH-98">
          <mxGeometry width="50" height="50" relative="1" as="geometry">
            <mxPoint x="1741" y="2870" as="sourcePoint" />
            <mxPoint x="1661" y="2870" as="targetPoint" />
          </mxGeometry>
        </mxCell>
        <mxCell id="4uRc20owQ4Cgfs499pXH-102" value="" style="whiteSpace=wrap;html=1;aspect=fixed;container=0;" vertex="1" parent="1">
          <mxGeometry x="1490" y="2750" width="80" height="80" as="geometry" />
        </mxCell>
        <mxCell id="4uRc20owQ4Cgfs499pXH-103" value="&lt;div&gt;x&lt;/div&gt;0.1217" style="text;html=1;align=center;verticalAlign=middle;whiteSpace=wrap;rounded=0;container=0;" vertex="1" parent="1">
          <mxGeometry x="1500" y="2775" width="60" height="30" as="geometry" />
        </mxCell>
        <mxCell id="4uRc20owQ4Cgfs499pXH-104" value="" style="ellipse;whiteSpace=wrap;html=1;aspect=fixed;container=0;" vertex="1" parent="1">
          <mxGeometry x="1561" y="2630" width="80" height="80" as="geometry" />
        </mxCell>
        <mxCell id="4uRc20owQ4Cgfs499pXH-105" value="1.1391" style="text;html=1;align=center;verticalAlign=middle;whiteSpace=wrap;rounded=0;container=0;" vertex="1" parent="1">
          <mxGeometry x="1571" y="2655" width="60" height="30" as="geometry" />
        </mxCell>
        <mxCell id="4uRc20owQ4Cgfs499pXH-106" value="" style="endArrow=none;html=1;rounded=0;entryX=0;entryY=1;entryDx=0;entryDy=0;exitX=0.5;exitY=0;exitDx=0;exitDy=0;" edge="1" parent="1" source="4uRc20owQ4Cgfs499pXH-102" target="4uRc20owQ4Cgfs499pXH-104">
          <mxGeometry width="50" height="50" relative="1" as="geometry">
            <mxPoint x="1541" y="2800" as="sourcePoint" />
            <mxPoint x="1591" y="2750" as="targetPoint" />
          </mxGeometry>
        </mxCell>
        <mxCell id="4uRc20owQ4Cgfs499pXH-107" value="" style="endArrow=none;html=1;rounded=0;entryX=1;entryY=1;entryDx=0;entryDy=0;exitX=0.5;exitY=0;exitDx=0;exitDy=0;" edge="1" parent="1" target="4uRc20owQ4Cgfs499pXH-104">
          <mxGeometry width="50" height="50" relative="1" as="geometry">
            <mxPoint x="1671" y="2750" as="sourcePoint" />
            <mxPoint x="1591" y="2750" as="targetPoint" />
          </mxGeometry>
        </mxCell>
        <mxCell id="4uRc20owQ4Cgfs499pXH-108" value="" style="whiteSpace=wrap;html=1;aspect=fixed;container=0;" vertex="1" parent="1">
          <mxGeometry x="1420" y="2630" width="80" height="80" as="geometry" />
        </mxCell>
        <mxCell id="4uRc20owQ4Cgfs499pXH-109" value="&lt;div&gt;H&lt;/div&gt;0.1217" style="text;html=1;align=center;verticalAlign=middle;whiteSpace=wrap;rounded=0;container=0;" vertex="1" parent="1">
          <mxGeometry x="1430" y="2655" width="60" height="30" as="geometry" />
        </mxCell>
        <mxCell id="4uRc20owQ4Cgfs499pXH-110" value="" style="ellipse;whiteSpace=wrap;html=1;aspect=fixed;container=0;" vertex="1" parent="1">
          <mxGeometry x="1491" y="2510" width="80" height="80" as="geometry" />
        </mxCell>
        <mxCell id="4uRc20owQ4Cgfs499pXH-111" value="1.2608" style="text;html=1;align=center;verticalAlign=middle;whiteSpace=wrap;rounded=0;container=0;" vertex="1" parent="1">
          <mxGeometry x="1501" y="2535" width="60" height="30" as="geometry" />
        </mxCell>
        <mxCell id="4uRc20owQ4Cgfs499pXH-112" value="" style="endArrow=none;html=1;rounded=0;entryX=0;entryY=1;entryDx=0;entryDy=0;exitX=0.5;exitY=0;exitDx=0;exitDy=0;" edge="1" parent="1" source="4uRc20owQ4Cgfs499pXH-108" target="4uRc20owQ4Cgfs499pXH-110">
          <mxGeometry width="50" height="50" relative="1" as="geometry">
            <mxPoint x="1471" y="2680" as="sourcePoint" />
            <mxPoint x="1521" y="2630" as="targetPoint" />
          </mxGeometry>
        </mxCell>
        <mxCell id="4uRc20owQ4Cgfs499pXH-113" value="" style="endArrow=none;html=1;rounded=0;entryX=1;entryY=1;entryDx=0;entryDy=0;exitX=0.5;exitY=0;exitDx=0;exitDy=0;" edge="1" parent="1" target="4uRc20owQ4Cgfs499pXH-110">
          <mxGeometry width="50" height="50" relative="1" as="geometry">
            <mxPoint x="1601" y="2630" as="sourcePoint" />
            <mxPoint x="1521" y="2630" as="targetPoint" />
          </mxGeometry>
        </mxCell>
        <mxCell id="4uRc20owQ4Cgfs499pXH-114" value="" style="whiteSpace=wrap;html=1;aspect=fixed;container=0;" vertex="1" parent="1">
          <mxGeometry x="1350" y="2510" width="80" height="80" as="geometry" />
        </mxCell>
        <mxCell id="4uRc20owQ4Cgfs499pXH-115" value="&lt;div&gt;D&lt;/div&gt;0.1276" style="text;html=1;align=center;verticalAlign=middle;whiteSpace=wrap;rounded=0;container=0;" vertex="1" parent="1">
          <mxGeometry x="1360" y="2535" width="60" height="30" as="geometry" />
        </mxCell>
        <mxCell id="4uRc20owQ4Cgfs499pXH-116" value="" style="ellipse;whiteSpace=wrap;html=1;aspect=fixed;container=0;" vertex="1" parent="1">
          <mxGeometry x="1421" y="2390" width="80" height="80" as="geometry" />
        </mxCell>
        <mxCell id="4uRc20owQ4Cgfs499pXH-117" value="1.3884&lt;span style=&quot;color: rgba(0, 0, 0, 0); font-family: monospace; font-size: 0px; text-align: start; text-wrap: nowrap;&quot;&gt;%3CmxGraphModel%3E%3Croot%3E%3CmxCell%20id%3D%220%22%2F%3E%3CmxCell%20id%3D%221%22%20parent%3D%220%22%2F%3E%3CmxCell%20id%3D%222%22%20value%3D%22%22%20style%3D%22whiteSpace%3Dwrap%3Bhtml%3D1%3Baspect%3Dfixed%3B%22%20vertex%3D%221%22%20parent%3D%221%22%3E%3CmxGeometry%20x%3D%22310%22%20y%3D%22470%22%20width%3D%2280%22%20height%3D%2280%22%20as%3D%22geometry%22%2F%3E%3C%2FmxCell%3E%3CmxCell%20id%3D%223%22%20value%3D%22%26lt%3Bdiv%26gt%3BQ%26lt%3B%2Fdiv%26gt%3B0.0115%22%20style%3D%22text%3Bhtml%3D1%3Balign%3Dcenter%3BverticalAlign%3Dmiddle%3BwhiteSpace%3Dwrap%3Brounded%3D0%3B%22%20vertex%3D%221%22%20parent%3D%221%22%3E%3CmxGeometry%20x%3D%22320%22%20y%3D%22495%22%20width%3D%2260%22%20height%3D%2230%22%20as%3D%22geometry%22%2F%3E%3C%2FmxCell%3E%3CmxCell%20id%3D%224%22%20value%3D%22%22%20style%3D%22ellipse%3BwhiteSpace%3Dwrap%3Bhtml%3D1%3Baspect%3Dfixed%3B%22%20vertex%3D%221%22%20parent%3D%221%22%3E%3CmxGeometry%20x%3D%22381%22%20y%3D%22350%22%20width%3D%2280%22%20height%3D%2280%22%20as%3D%22geometry%22%2F%3E%3C%2FmxCell%3E%3CmxCell%20id%3D%225%22%20value%3D%220.0245%22%20style%3D%22text%3Bhtml%3D1%3Balign%3Dcenter%3BverticalAlign%3Dmiddle%3BwhiteSpace%3Dwrap%3Brounded%3D0%3B%22%20vertex%3D%221%22%20parent%3D%221%22%3E%3CmxGeometry%20x%3D%22391%22%20y%3D%22375%22%20width%3D%2260%22%20height%3D%2230%22%20as%3D%22geometry%22%2F%3E%3C%2FmxCell%3E%3CmxCell%20id%3D%226%22%20value%3D%22%22%20style%3D%22endArrow%3Dnone%3Bhtml%3D1%3Brounded%3D0%3BentryX%3D0%3BentryY%3D1%3BentryDx%3D0%3BentryDy%3D0%3BexitX%3D0.5%3BexitY%3D0%3BexitDx%3D0%3BexitDy%3D0%3B%22%20edge%3D%221%22%20source%3D%222%22%20target%3D%224%22%20parent%3D%221%22%3E%3CmxGeometry%20width%3D%2250%22%20height%3D%2250%22%20relative%3D%221%22%20as%3D%22geometry%22%3E%3CmxPoint%20x%3D%22361%22%20y%3D%22520%22%20as%3D%22sourcePoint%22%2F%3E%3CmxPoint%20x%3D%22411%22%20y%3D%22470%22%20as%3D%22targetPoint%22%2F%3E%3C%2FmxGeometry%3E%3C%2FmxCell%3E%3CmxCell%20id%3D%227%22%20value%3D%22%22%20style%3D%22endArrow%3Dnone%3Bhtml%3D1%3Brounded%3D0%3BentryX%3D1%3BentryY%3D1%3BentryDx%3D0%3BentryDy%3D0%3BexitX%3D0.5%3BexitY%3D0%3BexitDx%3D0%3BexitDy%3D0%3B%22%20edge%3D%221%22%20target%3D%224%22%20parent%3D%221%22%3E%3CmxGeometry%20width%3D%2250%22%20height%3D%2250%22%20relative%3D%221%22%20as%3D%22geometry%22%3E%3CmxPoint%20x%3D%22491%22%20y%3D%22470%22%20as%3D%22sourcePoint%22%2F%3E%3CmxPoint%20x%3D%22411%22%20y%3D%22470%22%20as%3D%22targetPoint%22%2F%3E%3C%2FmxGeometry%3E%3C%2FmxCell%3E%3C%2Froot%3E%3C%2FmxGraphModel%3E&lt;/span&gt;" style="text;html=1;align=center;verticalAlign=middle;whiteSpace=wrap;rounded=0;container=0;" vertex="1" parent="1">
          <mxGeometry x="1431" y="2415" width="60" height="30" as="geometry" />
        </mxCell>
        <mxCell id="4uRc20owQ4Cgfs499pXH-118" value="" style="endArrow=none;html=1;rounded=0;entryX=0;entryY=1;entryDx=0;entryDy=0;exitX=0.5;exitY=0;exitDx=0;exitDy=0;" edge="1" parent="1" source="4uRc20owQ4Cgfs499pXH-114" target="4uRc20owQ4Cgfs499pXH-116">
          <mxGeometry width="50" height="50" relative="1" as="geometry">
            <mxPoint x="1401" y="2560" as="sourcePoint" />
            <mxPoint x="1451" y="2510" as="targetPoint" />
          </mxGeometry>
        </mxCell>
        <mxCell id="4uRc20owQ4Cgfs499pXH-119" value="" style="endArrow=none;html=1;rounded=0;entryX=1;entryY=1;entryDx=0;entryDy=0;exitX=0.5;exitY=0;exitDx=0;exitDy=0;" edge="1" parent="1" target="4uRc20owQ4Cgfs499pXH-116">
          <mxGeometry width="50" height="50" relative="1" as="geometry">
            <mxPoint x="1531" y="2510" as="sourcePoint" />
            <mxPoint x="1451" y="2510" as="targetPoint" />
          </mxGeometry>
        </mxCell>
        <mxCell id="4uRc20owQ4Cgfs499pXH-120" value="" style="whiteSpace=wrap;html=1;aspect=fixed;container=0;" vertex="1" parent="1">
          <mxGeometry x="1280" y="2390" width="80" height="80" as="geometry" />
        </mxCell>
        <mxCell id="4uRc20owQ4Cgfs499pXH-121" value="&lt;div&gt;E&lt;/div&gt;0.1363" style="text;html=1;align=center;verticalAlign=middle;whiteSpace=wrap;rounded=0;container=0;" vertex="1" parent="1">
          <mxGeometry x="1290" y="2415" width="60" height="30" as="geometry" />
        </mxCell>
        <mxCell id="4uRc20owQ4Cgfs499pXH-122" value="" style="ellipse;whiteSpace=wrap;html=1;aspect=fixed;container=0;" vertex="1" parent="1">
          <mxGeometry x="1351" y="2270" width="80" height="80" as="geometry" />
        </mxCell>
        <mxCell id="4uRc20owQ4Cgfs499pXH-123" value="1.5247" style="text;html=1;align=center;verticalAlign=middle;whiteSpace=wrap;rounded=0;container=0;" vertex="1" parent="1">
          <mxGeometry x="1361" y="2295" width="60" height="30" as="geometry" />
        </mxCell>
        <mxCell id="4uRc20owQ4Cgfs499pXH-124" value="" style="endArrow=none;html=1;rounded=0;entryX=0;entryY=1;entryDx=0;entryDy=0;exitX=0.5;exitY=0;exitDx=0;exitDy=0;" edge="1" parent="1" source="4uRc20owQ4Cgfs499pXH-120" target="4uRc20owQ4Cgfs499pXH-122">
          <mxGeometry width="50" height="50" relative="1" as="geometry">
            <mxPoint x="1331" y="2440" as="sourcePoint" />
            <mxPoint x="1381" y="2390" as="targetPoint" />
          </mxGeometry>
        </mxCell>
        <mxCell id="4uRc20owQ4Cgfs499pXH-125" value="" style="endArrow=none;html=1;rounded=0;entryX=1;entryY=1;entryDx=0;entryDy=0;exitX=0.5;exitY=0;exitDx=0;exitDy=0;" edge="1" parent="1" target="4uRc20owQ4Cgfs499pXH-122">
          <mxGeometry width="50" height="50" relative="1" as="geometry">
            <mxPoint x="1461" y="2390" as="sourcePoint" />
            <mxPoint x="1381" y="2390" as="targetPoint" />
          </mxGeometry>
        </mxCell>
        <mxCell id="4uRc20owQ4Cgfs499pXH-126" value="" style="whiteSpace=wrap;html=1;aspect=fixed;container=0;" vertex="1" parent="1">
          <mxGeometry x="1140" y="2150" width="80" height="80" as="geometry" />
        </mxCell>
        <mxCell id="4uRc20owQ4Cgfs499pXH-127" value="&lt;div&gt;R&lt;/div&gt;0.1442" style="text;html=1;align=center;verticalAlign=middle;whiteSpace=wrap;rounded=0;container=0;" vertex="1" parent="1">
          <mxGeometry x="1150" y="2175" width="60" height="30" as="geometry" />
        </mxCell>
        <mxCell id="4uRc20owQ4Cgfs499pXH-128" value="" style="ellipse;whiteSpace=wrap;html=1;aspect=fixed;container=0;" vertex="1" parent="1">
          <mxGeometry x="1211" y="2030" width="80" height="80" as="geometry" />
        </mxCell>
        <mxCell id="4uRc20owQ4Cgfs499pXH-129" value="1.8109" style="text;html=1;align=center;verticalAlign=middle;whiteSpace=wrap;rounded=0;container=0;" vertex="1" parent="1">
          <mxGeometry x="1221" y="2055" width="60" height="30" as="geometry" />
        </mxCell>
        <mxCell id="4uRc20owQ4Cgfs499pXH-130" value="" style="endArrow=none;html=1;rounded=0;entryX=0;entryY=1;entryDx=0;entryDy=0;exitX=0.5;exitY=0;exitDx=0;exitDy=0;" edge="1" parent="1" source="4uRc20owQ4Cgfs499pXH-126" target="4uRc20owQ4Cgfs499pXH-128">
          <mxGeometry width="50" height="50" relative="1" as="geometry">
            <mxPoint x="1191" y="2200" as="sourcePoint" />
            <mxPoint x="1241" y="2150" as="targetPoint" />
          </mxGeometry>
        </mxCell>
        <mxCell id="4uRc20owQ4Cgfs499pXH-131" value="" style="endArrow=none;html=1;rounded=0;entryX=1;entryY=1;entryDx=0;entryDy=0;exitX=0.5;exitY=0;exitDx=0;exitDy=0;" edge="1" parent="1" target="4uRc20owQ4Cgfs499pXH-128">
          <mxGeometry width="50" height="50" relative="1" as="geometry">
            <mxPoint x="1321" y="2150" as="sourcePoint" />
            <mxPoint x="1241" y="2150" as="targetPoint" />
          </mxGeometry>
        </mxCell>
        <mxCell id="4uRc20owQ4Cgfs499pXH-132" value="" style="whiteSpace=wrap;html=1;aspect=fixed;container=0;" vertex="1" parent="1">
          <mxGeometry x="1210" y="2270" width="80" height="80" as="geometry" />
        </mxCell>
        <mxCell id="4uRc20owQ4Cgfs499pXH-133" value="&lt;div&gt;P&lt;/div&gt;0.1420" style="text;html=1;align=center;verticalAlign=middle;whiteSpace=wrap;rounded=0;container=0;" vertex="1" parent="1">
          <mxGeometry x="1220" y="2295" width="60" height="30" as="geometry" />
        </mxCell>
        <mxCell id="4uRc20owQ4Cgfs499pXH-134" value="" style="ellipse;whiteSpace=wrap;html=1;aspect=fixed;container=0;" vertex="1" parent="1">
          <mxGeometry x="1281" y="2150" width="80" height="80" as="geometry" />
        </mxCell>
        <mxCell id="4uRc20owQ4Cgfs499pXH-135" value="1.6667" style="text;html=1;align=center;verticalAlign=middle;whiteSpace=wrap;rounded=0;container=0;" vertex="1" parent="1">
          <mxGeometry x="1291" y="2175" width="60" height="30" as="geometry" />
        </mxCell>
        <mxCell id="4uRc20owQ4Cgfs499pXH-136" value="" style="endArrow=none;html=1;rounded=0;entryX=0;entryY=1;entryDx=0;entryDy=0;exitX=0.5;exitY=0;exitDx=0;exitDy=0;" edge="1" parent="1" source="4uRc20owQ4Cgfs499pXH-132" target="4uRc20owQ4Cgfs499pXH-134">
          <mxGeometry width="50" height="50" relative="1" as="geometry">
            <mxPoint x="1261" y="2320" as="sourcePoint" />
            <mxPoint x="1311" y="2270" as="targetPoint" />
          </mxGeometry>
        </mxCell>
        <mxCell id="4uRc20owQ4Cgfs499pXH-137" value="" style="endArrow=none;html=1;rounded=0;entryX=1;entryY=1;entryDx=0;entryDy=0;exitX=0.5;exitY=0;exitDx=0;exitDy=0;" edge="1" parent="1" target="4uRc20owQ4Cgfs499pXH-134">
          <mxGeometry width="50" height="50" relative="1" as="geometry">
            <mxPoint x="1391" y="2270" as="sourcePoint" />
            <mxPoint x="1311" y="2270" as="targetPoint" />
          </mxGeometry>
        </mxCell>
        <mxCell id="4uRc20owQ4Cgfs499pXH-138" value="0" style="text;html=1;align=center;verticalAlign=middle;whiteSpace=wrap;rounded=0;container=0;" vertex="1" parent="1">
          <mxGeometry x="2453" y="4545" width="60" height="30" as="geometry" />
        </mxCell>
        <mxCell id="4uRc20owQ4Cgfs499pXH-139" value="0" style="text;html=1;align=center;verticalAlign=middle;whiteSpace=wrap;rounded=0;container=0;" vertex="1" parent="1">
          <mxGeometry x="2380" y="4420" width="60" height="30" as="geometry" />
        </mxCell>
        <mxCell id="4uRc20owQ4Cgfs499pXH-144" value="0" style="text;html=1;align=center;verticalAlign=middle;whiteSpace=wrap;rounded=0;container=0;" vertex="1" parent="1">
          <mxGeometry x="2453" y="4293" width="60" height="30" as="geometry" />
        </mxCell>
        <mxCell id="4uRc20owQ4Cgfs499pXH-145" value="0" style="text;html=1;align=center;verticalAlign=middle;whiteSpace=wrap;rounded=0;container=0;" vertex="1" parent="1">
          <mxGeometry x="2359" y="4163" width="60" height="30" as="geometry" />
        </mxCell>
        <mxCell id="4uRc20owQ4Cgfs499pXH-146" value="0" style="text;html=1;align=center;verticalAlign=middle;whiteSpace=wrap;rounded=0;container=0;" vertex="1" parent="1">
          <mxGeometry x="2286" y="4020" width="60" height="30" as="geometry" />
        </mxCell>
        <mxCell id="4uRc20owQ4Cgfs499pXH-147" value="0" style="text;html=1;align=center;verticalAlign=middle;whiteSpace=wrap;rounded=0;container=0;" vertex="1" parent="1">
          <mxGeometry x="2215" y="3900" width="60" height="30" as="geometry" />
        </mxCell>
        <mxCell id="4uRc20owQ4Cgfs499pXH-148" value="0" style="text;html=1;align=center;verticalAlign=middle;whiteSpace=wrap;rounded=0;container=0;" vertex="1" parent="1">
          <mxGeometry x="2149" y="3779" width="60" height="30" as="geometry" />
        </mxCell>
        <mxCell id="4uRc20owQ4Cgfs499pXH-149" value="0" style="text;html=1;align=center;verticalAlign=middle;whiteSpace=wrap;rounded=0;container=0;" vertex="1" parent="1">
          <mxGeometry x="2080" y="3660" width="60" height="30" as="geometry" />
        </mxCell>
        <mxCell id="4uRc20owQ4Cgfs499pXH-150" value="0" style="text;html=1;align=center;verticalAlign=middle;whiteSpace=wrap;rounded=0;container=0;" vertex="1" parent="1">
          <mxGeometry x="2004" y="3540" width="60" height="30" as="geometry" />
        </mxCell>
        <mxCell id="4uRc20owQ4Cgfs499pXH-151" value="0" style="text;html=1;align=center;verticalAlign=middle;whiteSpace=wrap;rounded=0;container=0;" vertex="1" parent="1">
          <mxGeometry x="1931.5" y="3420" width="60" height="30" as="geometry" />
        </mxCell>
        <mxCell id="4uRc20owQ4Cgfs499pXH-152" value="0" style="text;html=1;align=center;verticalAlign=middle;whiteSpace=wrap;rounded=0;container=0;" vertex="1" parent="1">
          <mxGeometry x="1865" y="3300" width="60" height="30" as="geometry" />
        </mxCell>
        <mxCell id="4uRc20owQ4Cgfs499pXH-153" value="0" style="text;html=1;align=center;verticalAlign=middle;whiteSpace=wrap;rounded=0;container=0;" vertex="1" parent="1">
          <mxGeometry x="1794" y="3180" width="60" height="30" as="geometry" />
        </mxCell>
        <mxCell id="4uRc20owQ4Cgfs499pXH-154" value="0" style="text;html=1;align=center;verticalAlign=middle;whiteSpace=wrap;rounded=0;container=0;" vertex="1" parent="1">
          <mxGeometry x="1722" y="3060" width="60" height="30" as="geometry" />
        </mxCell>
        <mxCell id="4uRc20owQ4Cgfs499pXH-155" value="0" style="text;html=1;align=center;verticalAlign=middle;whiteSpace=wrap;rounded=0;container=0;" vertex="1" parent="1">
          <mxGeometry x="1651" y="2941" width="60" height="30" as="geometry" />
        </mxCell>
        <mxCell id="4uRc20owQ4Cgfs499pXH-156" value="0" style="text;html=1;align=center;verticalAlign=middle;whiteSpace=wrap;rounded=0;container=0;" vertex="1" parent="1">
          <mxGeometry x="1581" y="2820" width="60" height="30" as="geometry" />
        </mxCell>
        <mxCell id="4uRc20owQ4Cgfs499pXH-157" value="0" style="text;html=1;align=center;verticalAlign=middle;whiteSpace=wrap;rounded=0;container=0;" vertex="1" parent="1">
          <mxGeometry x="1511" y="2700" width="60" height="30" as="geometry" />
        </mxCell>
        <mxCell id="4uRc20owQ4Cgfs499pXH-158" value="0" style="text;html=1;align=center;verticalAlign=middle;whiteSpace=wrap;rounded=0;container=0;" vertex="1" parent="1">
          <mxGeometry x="1441" y="2580" width="60" height="30" as="geometry" />
        </mxCell>
        <mxCell id="4uRc20owQ4Cgfs499pXH-159" value="0" style="text;html=1;align=center;verticalAlign=middle;whiteSpace=wrap;rounded=0;container=0;" vertex="1" parent="1">
          <mxGeometry x="1375" y="2460" width="60" height="30" as="geometry" />
        </mxCell>
        <mxCell id="4uRc20owQ4Cgfs499pXH-160" value="0" style="text;html=1;align=center;verticalAlign=middle;whiteSpace=wrap;rounded=0;container=0;" vertex="1" parent="1">
          <mxGeometry x="1306" y="2339" width="60" height="30" as="geometry" />
        </mxCell>
        <mxCell id="4uRc20owQ4Cgfs499pXH-161" value="0" style="text;html=1;align=center;verticalAlign=middle;whiteSpace=wrap;rounded=0;container=0;" vertex="1" parent="1">
          <mxGeometry x="1234" y="2220" width="60" height="30" as="geometry" />
        </mxCell>
        <mxCell id="4uRc20owQ4Cgfs499pXH-162" value="0" style="text;html=1;align=center;verticalAlign=middle;whiteSpace=wrap;rounded=0;container=0;" vertex="1" parent="1">
          <mxGeometry x="1159.5" y="2100" width="60" height="30" as="geometry" />
        </mxCell>
        <mxCell id="4uRc20owQ4Cgfs499pXH-163" value="1" style="text;html=1;align=center;verticalAlign=middle;whiteSpace=wrap;rounded=0;container=0;" vertex="1" parent="1">
          <mxGeometry x="1279.5" y="2099" width="60" height="30" as="geometry" />
        </mxCell>
        <mxCell id="4uRc20owQ4Cgfs499pXH-164" value="1" style="text;html=1;align=center;verticalAlign=middle;whiteSpace=wrap;rounded=0;container=0;" vertex="1" parent="1">
          <mxGeometry x="1351" y="2220" width="60" height="30" as="geometry" />
        </mxCell>
        <mxCell id="4uRc20owQ4Cgfs499pXH-165" value="1" style="text;html=1;align=center;verticalAlign=middle;whiteSpace=wrap;rounded=0;container=0;" vertex="1" parent="1">
          <mxGeometry x="1421" y="2339" width="60" height="30" as="geometry" />
        </mxCell>
        <mxCell id="4uRc20owQ4Cgfs499pXH-166" value="1" style="text;html=1;align=center;verticalAlign=middle;whiteSpace=wrap;rounded=0;container=0;" vertex="1" parent="1">
          <mxGeometry x="1491" y="2460" width="60" height="30" as="geometry" />
        </mxCell>
        <mxCell id="4uRc20owQ4Cgfs499pXH-167" value="1" style="text;html=1;align=center;verticalAlign=middle;whiteSpace=wrap;rounded=0;container=0;" vertex="1" parent="1">
          <mxGeometry x="1561" y="2580" width="60" height="30" as="geometry" />
        </mxCell>
        <mxCell id="4uRc20owQ4Cgfs499pXH-168" value="1" style="text;html=1;align=center;verticalAlign=middle;whiteSpace=wrap;rounded=0;container=0;" vertex="1" parent="1">
          <mxGeometry x="1631" y="2700" width="60" height="30" as="geometry" />
        </mxCell>
        <mxCell id="4uRc20owQ4Cgfs499pXH-169" value="1" style="text;html=1;align=center;verticalAlign=middle;whiteSpace=wrap;rounded=0;container=0;" vertex="1" parent="1">
          <mxGeometry x="1701" y="2820" width="60" height="30" as="geometry" />
        </mxCell>
        <mxCell id="4uRc20owQ4Cgfs499pXH-170" value="1" style="text;html=1;align=center;verticalAlign=middle;whiteSpace=wrap;rounded=0;container=0;" vertex="1" parent="1">
          <mxGeometry x="1770" y="2941" width="60" height="30" as="geometry" />
        </mxCell>
        <mxCell id="4uRc20owQ4Cgfs499pXH-171" value="1" style="text;html=1;align=center;verticalAlign=middle;whiteSpace=wrap;rounded=0;container=0;" vertex="1" parent="1">
          <mxGeometry x="1841" y="3060" width="60" height="30" as="geometry" />
        </mxCell>
        <mxCell id="4uRc20owQ4Cgfs499pXH-172" value="1" style="text;html=1;align=center;verticalAlign=middle;whiteSpace=wrap;rounded=0;container=0;" vertex="1" parent="1">
          <mxGeometry x="1910" y="3180" width="60" height="30" as="geometry" />
        </mxCell>
        <mxCell id="4uRc20owQ4Cgfs499pXH-173" value="1" style="text;html=1;align=center;verticalAlign=middle;whiteSpace=wrap;rounded=0;container=0;" vertex="1" parent="1">
          <mxGeometry x="1980" y="3300" width="60" height="30" as="geometry" />
        </mxCell>
        <mxCell id="4uRc20owQ4Cgfs499pXH-174" value="1" style="text;html=1;align=center;verticalAlign=middle;whiteSpace=wrap;rounded=0;container=0;" vertex="1" parent="1">
          <mxGeometry x="2050" y="3420" width="60" height="30" as="geometry" />
        </mxCell>
        <mxCell id="4uRc20owQ4Cgfs499pXH-175" value="1" style="text;html=1;align=center;verticalAlign=middle;whiteSpace=wrap;rounded=0;container=0;" vertex="1" parent="1">
          <mxGeometry x="2121" y="3540" width="60" height="30" as="geometry" />
        </mxCell>
        <mxCell id="4uRc20owQ4Cgfs499pXH-176" value="1" style="text;html=1;align=center;verticalAlign=middle;whiteSpace=wrap;rounded=0;container=0;" vertex="1" parent="1">
          <mxGeometry x="2196" y="3660" width="60" height="30" as="geometry" />
        </mxCell>
        <mxCell id="4uRc20owQ4Cgfs499pXH-177" value="1" style="text;html=1;align=center;verticalAlign=middle;whiteSpace=wrap;rounded=0;container=0;" vertex="1" parent="1">
          <mxGeometry x="2265" y="3779" width="60" height="30" as="geometry" />
        </mxCell>
        <mxCell id="4uRc20owQ4Cgfs499pXH-178" value="1" style="text;html=1;align=center;verticalAlign=middle;whiteSpace=wrap;rounded=0;container=0;" vertex="1" parent="1">
          <mxGeometry x="2336" y="3900" width="60" height="30" as="geometry" />
        </mxCell>
        <mxCell id="4uRc20owQ4Cgfs499pXH-179" value="1" style="text;html=1;align=center;verticalAlign=middle;whiteSpace=wrap;rounded=0;container=0;" vertex="1" parent="1">
          <mxGeometry x="2406" y="4020" width="60" height="30" as="geometry" />
        </mxCell>
        <mxCell id="4uRc20owQ4Cgfs499pXH-180" value="1" style="text;html=1;align=center;verticalAlign=middle;whiteSpace=wrap;rounded=0;container=0;" vertex="1" parent="1">
          <mxGeometry x="2496" y="4163" width="60" height="30" as="geometry" />
        </mxCell>
        <mxCell id="4uRc20owQ4Cgfs499pXH-181" value="1" style="text;html=1;align=center;verticalAlign=middle;whiteSpace=wrap;rounded=0;container=0;" vertex="1" parent="1">
          <mxGeometry x="2586" y="4293" width="60" height="30" as="geometry" />
        </mxCell>
        <mxCell id="4uRc20owQ4Cgfs499pXH-182" value="1" style="text;html=1;align=center;verticalAlign=middle;whiteSpace=wrap;rounded=0;container=0;" vertex="1" parent="1">
          <mxGeometry x="2496" y="4420" width="60" height="30" as="geometry" />
        </mxCell>
        <mxCell id="4uRc20owQ4Cgfs499pXH-183" value="1" style="text;html=1;align=center;verticalAlign=middle;whiteSpace=wrap;rounded=0;container=0;" vertex="1" parent="1">
          <mxGeometry x="2566" y="4545" width="60" height="30" as="geometry" />
        </mxCell>
        <mxCell id="4uRc20owQ4Cgfs499pXH-184" value="" style="whiteSpace=wrap;html=1;aspect=fixed;container=0;" vertex="1" parent="1">
          <mxGeometry x="1070" y="2030" width="80" height="80" as="geometry" />
        </mxCell>
        <mxCell id="4uRc20owQ4Cgfs499pXH-185" value="&lt;div&gt;B&lt;/div&gt;0.1669" style="text;html=1;align=center;verticalAlign=middle;whiteSpace=wrap;rounded=0;container=0;" vertex="1" parent="1">
          <mxGeometry x="1080" y="2055" width="60" height="30" as="geometry" />
        </mxCell>
        <mxCell id="4uRc20owQ4Cgfs499pXH-186" value="" style="ellipse;whiteSpace=wrap;html=1;aspect=fixed;container=0;" vertex="1" parent="1">
          <mxGeometry x="1141" y="1910" width="80" height="80" as="geometry" />
        </mxCell>
        <mxCell id="4uRc20owQ4Cgfs499pXH-187" value="1.9778" style="text;html=1;align=center;verticalAlign=middle;whiteSpace=wrap;rounded=0;container=0;" vertex="1" parent="1">
          <mxGeometry x="1151" y="1935" width="60" height="30" as="geometry" />
        </mxCell>
        <mxCell id="4uRc20owQ4Cgfs499pXH-188" value="" style="endArrow=none;html=1;rounded=0;entryX=0;entryY=1;entryDx=0;entryDy=0;exitX=0.5;exitY=0;exitDx=0;exitDy=0;" edge="1" parent="1" source="4uRc20owQ4Cgfs499pXH-184" target="4uRc20owQ4Cgfs499pXH-186">
          <mxGeometry width="50" height="50" relative="1" as="geometry">
            <mxPoint x="1121" y="2080" as="sourcePoint" />
            <mxPoint x="1171" y="2030" as="targetPoint" />
          </mxGeometry>
        </mxCell>
        <mxCell id="4uRc20owQ4Cgfs499pXH-189" value="" style="endArrow=none;html=1;rounded=0;entryX=1;entryY=1;entryDx=0;entryDy=0;exitX=0.5;exitY=0;exitDx=0;exitDy=0;" edge="1" parent="1" target="4uRc20owQ4Cgfs499pXH-186">
          <mxGeometry width="50" height="50" relative="1" as="geometry">
            <mxPoint x="1251" y="2030" as="sourcePoint" />
            <mxPoint x="1171" y="2030" as="targetPoint" />
          </mxGeometry>
        </mxCell>
        <mxCell id="4uRc20owQ4Cgfs499pXH-190" value="0" style="text;html=1;align=center;verticalAlign=middle;whiteSpace=wrap;rounded=0;container=0;" vertex="1" parent="1">
          <mxGeometry x="1089.5" y="1980" width="60" height="30" as="geometry" />
        </mxCell>
        <mxCell id="4uRc20owQ4Cgfs499pXH-191" value="1" style="text;html=1;align=center;verticalAlign=middle;whiteSpace=wrap;rounded=0;container=0;" vertex="1" parent="1">
          <mxGeometry x="1209.5" y="1979" width="60" height="30" as="geometry" />
        </mxCell>
        <mxCell id="4uRc20owQ4Cgfs499pXH-194" value="" style="whiteSpace=wrap;html=1;aspect=fixed;container=0;" vertex="1" parent="1">
          <mxGeometry x="1000" y="1910" width="80" height="80" as="geometry" />
        </mxCell>
        <mxCell id="4uRc20owQ4Cgfs499pXH-195" value="&lt;div&gt;N&lt;/div&gt;0.2022" style="text;html=1;align=center;verticalAlign=middle;whiteSpace=wrap;rounded=0;container=0;" vertex="1" parent="1">
          <mxGeometry x="1010" y="1935" width="60" height="30" as="geometry" />
        </mxCell>
        <mxCell id="4uRc20owQ4Cgfs499pXH-196" value="" style="ellipse;whiteSpace=wrap;html=1;aspect=fixed;container=0;" vertex="1" parent="1">
          <mxGeometry x="1071" y="1790" width="80" height="80" as="geometry" />
        </mxCell>
        <mxCell id="4uRc20owQ4Cgfs499pXH-197" value="2.18" style="text;html=1;align=center;verticalAlign=middle;whiteSpace=wrap;rounded=0;container=0;" vertex="1" parent="1">
          <mxGeometry x="1081" y="1815" width="60" height="30" as="geometry" />
        </mxCell>
        <mxCell id="4uRc20owQ4Cgfs499pXH-198" value="" style="endArrow=none;html=1;rounded=0;entryX=0;entryY=1;entryDx=0;entryDy=0;exitX=0.5;exitY=0;exitDx=0;exitDy=0;" edge="1" parent="1" source="4uRc20owQ4Cgfs499pXH-194" target="4uRc20owQ4Cgfs499pXH-196">
          <mxGeometry width="50" height="50" relative="1" as="geometry">
            <mxPoint x="1051" y="1960" as="sourcePoint" />
            <mxPoint x="1101" y="1910" as="targetPoint" />
          </mxGeometry>
        </mxCell>
        <mxCell id="4uRc20owQ4Cgfs499pXH-199" value="" style="endArrow=none;html=1;rounded=0;entryX=1;entryY=1;entryDx=0;entryDy=0;exitX=0.5;exitY=0;exitDx=0;exitDy=0;" edge="1" parent="1" target="4uRc20owQ4Cgfs499pXH-196">
          <mxGeometry width="50" height="50" relative="1" as="geometry">
            <mxPoint x="1181" y="1910" as="sourcePoint" />
            <mxPoint x="1101" y="1910" as="targetPoint" />
          </mxGeometry>
        </mxCell>
        <mxCell id="4uRc20owQ4Cgfs499pXH-200" value="0" style="text;html=1;align=center;verticalAlign=middle;whiteSpace=wrap;rounded=0;container=0;" vertex="1" parent="1">
          <mxGeometry x="1019.5" y="1860" width="60" height="30" as="geometry" />
        </mxCell>
        <mxCell id="4uRc20owQ4Cgfs499pXH-201" value="1" style="text;html=1;align=center;verticalAlign=middle;whiteSpace=wrap;rounded=0;container=0;" vertex="1" parent="1">
          <mxGeometry x="1139.5" y="1859" width="60" height="30" as="geometry" />
        </mxCell>
        <mxCell id="4uRc20owQ4Cgfs499pXH-202" value="" style="whiteSpace=wrap;html=1;aspect=fixed;container=0;" vertex="1" parent="1">
          <mxGeometry x="930" y="1790" width="80" height="80" as="geometry" />
        </mxCell>
        <mxCell id="4uRc20owQ4Cgfs499pXH-203" value="&lt;div&gt;I&lt;/div&gt;0.2199" style="text;html=1;align=center;verticalAlign=middle;whiteSpace=wrap;rounded=0;container=0;" vertex="1" parent="1">
          <mxGeometry x="940" y="1815" width="60" height="30" as="geometry" />
        </mxCell>
        <mxCell id="4uRc20owQ4Cgfs499pXH-204" value="" style="ellipse;whiteSpace=wrap;html=1;aspect=fixed;container=0;" vertex="1" parent="1">
          <mxGeometry x="1001" y="1670" width="80" height="80" as="geometry" />
        </mxCell>
        <mxCell id="4uRc20owQ4Cgfs499pXH-205" value="2.3999" style="text;html=1;align=center;verticalAlign=middle;whiteSpace=wrap;rounded=0;container=0;" vertex="1" parent="1">
          <mxGeometry x="1011" y="1695" width="60" height="30" as="geometry" />
        </mxCell>
        <mxCell id="4uRc20owQ4Cgfs499pXH-206" value="" style="endArrow=none;html=1;rounded=0;entryX=0;entryY=1;entryDx=0;entryDy=0;exitX=0.5;exitY=0;exitDx=0;exitDy=0;" edge="1" parent="1" source="4uRc20owQ4Cgfs499pXH-202" target="4uRc20owQ4Cgfs499pXH-204">
          <mxGeometry width="50" height="50" relative="1" as="geometry">
            <mxPoint x="981" y="1840" as="sourcePoint" />
            <mxPoint x="1031" y="1790" as="targetPoint" />
          </mxGeometry>
        </mxCell>
        <mxCell id="4uRc20owQ4Cgfs499pXH-207" value="" style="endArrow=none;html=1;rounded=0;entryX=1;entryY=1;entryDx=0;entryDy=0;exitX=0.5;exitY=0;exitDx=0;exitDy=0;" edge="1" parent="1" target="4uRc20owQ4Cgfs499pXH-204">
          <mxGeometry width="50" height="50" relative="1" as="geometry">
            <mxPoint x="1111" y="1790" as="sourcePoint" />
            <mxPoint x="1031" y="1790" as="targetPoint" />
          </mxGeometry>
        </mxCell>
        <mxCell id="4uRc20owQ4Cgfs499pXH-208" value="0" style="text;html=1;align=center;verticalAlign=middle;whiteSpace=wrap;rounded=0;container=0;" vertex="1" parent="1">
          <mxGeometry x="949.5" y="1740" width="60" height="30" as="geometry" />
        </mxCell>
        <mxCell id="4uRc20owQ4Cgfs499pXH-209" value="1" style="text;html=1;align=center;verticalAlign=middle;whiteSpace=wrap;rounded=0;container=0;" vertex="1" parent="1">
          <mxGeometry x="1069.5" y="1739" width="60" height="30" as="geometry" />
        </mxCell>
        <mxCell id="4uRc20owQ4Cgfs499pXH-210" value="" style="whiteSpace=wrap;html=1;aspect=fixed;container=0;" vertex="1" parent="1">
          <mxGeometry x="860" y="1670" width="80" height="80" as="geometry" />
        </mxCell>
        <mxCell id="4uRc20owQ4Cgfs499pXH-211" value="&lt;div&gt;C&lt;/div&gt;0.2258" style="text;html=1;align=center;verticalAlign=middle;whiteSpace=wrap;rounded=0;container=0;" vertex="1" parent="1">
          <mxGeometry x="870" y="1695" width="60" height="30" as="geometry" />
        </mxCell>
        <mxCell id="4uRc20owQ4Cgfs499pXH-212" value="" style="ellipse;whiteSpace=wrap;html=1;aspect=fixed;container=0;" vertex="1" parent="1">
          <mxGeometry x="931" y="1550" width="80" height="80" as="geometry" />
        </mxCell>
        <mxCell id="4uRc20owQ4Cgfs499pXH-213" value="2.6257" style="text;html=1;align=center;verticalAlign=middle;whiteSpace=wrap;rounded=0;container=0;" vertex="1" parent="1">
          <mxGeometry x="941" y="1575" width="60" height="30" as="geometry" />
        </mxCell>
        <mxCell id="4uRc20owQ4Cgfs499pXH-214" value="" style="endArrow=none;html=1;rounded=0;entryX=0;entryY=1;entryDx=0;entryDy=0;exitX=0.5;exitY=0;exitDx=0;exitDy=0;" edge="1" parent="1" source="4uRc20owQ4Cgfs499pXH-210" target="4uRc20owQ4Cgfs499pXH-212">
          <mxGeometry width="50" height="50" relative="1" as="geometry">
            <mxPoint x="911" y="1720" as="sourcePoint" />
            <mxPoint x="961" y="1670" as="targetPoint" />
          </mxGeometry>
        </mxCell>
        <mxCell id="4uRc20owQ4Cgfs499pXH-215" value="" style="endArrow=none;html=1;rounded=0;entryX=1;entryY=1;entryDx=0;entryDy=0;exitX=0.5;exitY=0;exitDx=0;exitDy=0;" edge="1" parent="1" target="4uRc20owQ4Cgfs499pXH-212">
          <mxGeometry width="50" height="50" relative="1" as="geometry">
            <mxPoint x="1041" y="1670" as="sourcePoint" />
            <mxPoint x="961" y="1670" as="targetPoint" />
          </mxGeometry>
        </mxCell>
        <mxCell id="4uRc20owQ4Cgfs499pXH-216" value="0" style="text;html=1;align=center;verticalAlign=middle;whiteSpace=wrap;rounded=0;container=0;" vertex="1" parent="1">
          <mxGeometry x="879.5" y="1620" width="60" height="30" as="geometry" />
        </mxCell>
        <mxCell id="4uRc20owQ4Cgfs499pXH-217" value="1" style="text;html=1;align=center;verticalAlign=middle;whiteSpace=wrap;rounded=0;container=0;" vertex="1" parent="1">
          <mxGeometry x="999.5" y="1619" width="60" height="30" as="geometry" />
        </mxCell>
        <mxCell id="4uRc20owQ4Cgfs499pXH-218" value="" style="whiteSpace=wrap;html=1;aspect=fixed;container=0;" vertex="1" parent="1">
          <mxGeometry x="790" y="1550" width="80" height="80" as="geometry" />
        </mxCell>
        <mxCell id="4uRc20owQ4Cgfs499pXH-219" value="&lt;div&gt;M&lt;/div&gt;0.2555" style="text;html=1;align=center;verticalAlign=middle;whiteSpace=wrap;rounded=0;container=0;" vertex="1" parent="1">
          <mxGeometry x="800" y="1575" width="60" height="30" as="geometry" />
        </mxCell>
        <mxCell id="4uRc20owQ4Cgfs499pXH-220" value="" style="ellipse;whiteSpace=wrap;html=1;aspect=fixed;container=0;" vertex="1" parent="1">
          <mxGeometry x="861" y="1430" width="80" height="80" as="geometry" />
        </mxCell>
        <mxCell id="4uRc20owQ4Cgfs499pXH-221" value="2.8812" style="text;html=1;align=center;verticalAlign=middle;whiteSpace=wrap;rounded=0;container=0;" vertex="1" parent="1">
          <mxGeometry x="871" y="1455" width="60" height="30" as="geometry" />
        </mxCell>
        <mxCell id="4uRc20owQ4Cgfs499pXH-222" value="" style="endArrow=none;html=1;rounded=0;entryX=0;entryY=1;entryDx=0;entryDy=0;exitX=0.5;exitY=0;exitDx=0;exitDy=0;" edge="1" parent="1" source="4uRc20owQ4Cgfs499pXH-218" target="4uRc20owQ4Cgfs499pXH-220">
          <mxGeometry width="50" height="50" relative="1" as="geometry">
            <mxPoint x="841" y="1600" as="sourcePoint" />
            <mxPoint x="891" y="1550" as="targetPoint" />
          </mxGeometry>
        </mxCell>
        <mxCell id="4uRc20owQ4Cgfs499pXH-223" value="" style="endArrow=none;html=1;rounded=0;entryX=1;entryY=1;entryDx=0;entryDy=0;exitX=0.5;exitY=0;exitDx=0;exitDy=0;" edge="1" parent="1" target="4uRc20owQ4Cgfs499pXH-220">
          <mxGeometry width="50" height="50" relative="1" as="geometry">
            <mxPoint x="971" y="1550" as="sourcePoint" />
            <mxPoint x="891" y="1550" as="targetPoint" />
          </mxGeometry>
        </mxCell>
        <mxCell id="4uRc20owQ4Cgfs499pXH-224" value="0" style="text;html=1;align=center;verticalAlign=middle;whiteSpace=wrap;rounded=0;container=0;" vertex="1" parent="1">
          <mxGeometry x="809.5" y="1500" width="60" height="30" as="geometry" />
        </mxCell>
        <mxCell id="4uRc20owQ4Cgfs499pXH-225" value="1" style="text;html=1;align=center;verticalAlign=middle;whiteSpace=wrap;rounded=0;container=0;" vertex="1" parent="1">
          <mxGeometry x="929.5" y="1499" width="60" height="30" as="geometry" />
        </mxCell>
        <mxCell id="4uRc20owQ4Cgfs499pXH-226" value="" style="whiteSpace=wrap;html=1;aspect=fixed;container=0;" vertex="1" parent="1">
          <mxGeometry x="720" y="1430" width="80" height="80" as="geometry" />
        </mxCell>
        <mxCell id="4uRc20owQ4Cgfs499pXH-227" value="&lt;div&gt;A&lt;/div&gt;0.2766" style="text;html=1;align=center;verticalAlign=middle;whiteSpace=wrap;rounded=0;container=0;" vertex="1" parent="1">
          <mxGeometry x="730" y="1455" width="60" height="30" as="geometry" />
        </mxCell>
        <mxCell id="4uRc20owQ4Cgfs499pXH-228" value="" style="ellipse;whiteSpace=wrap;html=1;aspect=fixed;container=0;" vertex="1" parent="1">
          <mxGeometry x="791" y="1310" width="80" height="80" as="geometry" />
        </mxCell>
        <mxCell id="4uRc20owQ4Cgfs499pXH-229" value="3.1578" style="text;html=1;align=center;verticalAlign=middle;whiteSpace=wrap;rounded=0;container=0;" vertex="1" parent="1">
          <mxGeometry x="801" y="1335" width="60" height="30" as="geometry" />
        </mxCell>
        <mxCell id="4uRc20owQ4Cgfs499pXH-230" value="" style="endArrow=none;html=1;rounded=0;entryX=0;entryY=1;entryDx=0;entryDy=0;exitX=0.5;exitY=0;exitDx=0;exitDy=0;" edge="1" parent="1" source="4uRc20owQ4Cgfs499pXH-226" target="4uRc20owQ4Cgfs499pXH-228">
          <mxGeometry width="50" height="50" relative="1" as="geometry">
            <mxPoint x="771" y="1480" as="sourcePoint" />
            <mxPoint x="821" y="1430" as="targetPoint" />
          </mxGeometry>
        </mxCell>
        <mxCell id="4uRc20owQ4Cgfs499pXH-231" value="" style="endArrow=none;html=1;rounded=0;entryX=1;entryY=1;entryDx=0;entryDy=0;exitX=0.5;exitY=0;exitDx=0;exitDy=0;" edge="1" parent="1" target="4uRc20owQ4Cgfs499pXH-228">
          <mxGeometry width="50" height="50" relative="1" as="geometry">
            <mxPoint x="901" y="1430" as="sourcePoint" />
            <mxPoint x="821" y="1430" as="targetPoint" />
          </mxGeometry>
        </mxCell>
        <mxCell id="4uRc20owQ4Cgfs499pXH-232" value="0" style="text;html=1;align=center;verticalAlign=middle;whiteSpace=wrap;rounded=0;container=0;" vertex="1" parent="1">
          <mxGeometry x="739.5" y="1380" width="60" height="30" as="geometry" />
        </mxCell>
        <mxCell id="4uRc20owQ4Cgfs499pXH-233" value="1" style="text;html=1;align=center;verticalAlign=middle;whiteSpace=wrap;rounded=0;container=0;" vertex="1" parent="1">
          <mxGeometry x="859.5" y="1379" width="60" height="30" as="geometry" />
        </mxCell>
        <mxCell id="4uRc20owQ4Cgfs499pXH-234" value="" style="whiteSpace=wrap;html=1;aspect=fixed;container=0;" vertex="1" parent="1">
          <mxGeometry x="650" y="1310" width="80" height="80" as="geometry" />
        </mxCell>
        <mxCell id="4uRc20owQ4Cgfs499pXH-235" value="&lt;div&gt;S&lt;/div&gt;0.3003" style="text;html=1;align=center;verticalAlign=middle;whiteSpace=wrap;rounded=0;container=0;" vertex="1" parent="1">
          <mxGeometry x="660" y="1335" width="60" height="30" as="geometry" />
        </mxCell>
        <mxCell id="4uRc20owQ4Cgfs499pXH-236" value="" style="ellipse;whiteSpace=wrap;html=1;aspect=fixed;container=0;" vertex="1" parent="1">
          <mxGeometry x="721" y="1190" width="80" height="80" as="geometry" />
        </mxCell>
        <mxCell id="4uRc20owQ4Cgfs499pXH-237" value="3.4581" style="text;html=1;align=center;verticalAlign=middle;whiteSpace=wrap;rounded=0;container=0;" vertex="1" parent="1">
          <mxGeometry x="731" y="1215" width="60" height="30" as="geometry" />
        </mxCell>
        <mxCell id="4uRc20owQ4Cgfs499pXH-238" value="" style="endArrow=none;html=1;rounded=0;entryX=0;entryY=1;entryDx=0;entryDy=0;exitX=0.5;exitY=0;exitDx=0;exitDy=0;" edge="1" parent="1" source="4uRc20owQ4Cgfs499pXH-234" target="4uRc20owQ4Cgfs499pXH-236">
          <mxGeometry width="50" height="50" relative="1" as="geometry">
            <mxPoint x="701" y="1360" as="sourcePoint" />
            <mxPoint x="751" y="1310" as="targetPoint" />
          </mxGeometry>
        </mxCell>
        <mxCell id="4uRc20owQ4Cgfs499pXH-239" value="" style="endArrow=none;html=1;rounded=0;entryX=1;entryY=1;entryDx=0;entryDy=0;exitX=0.5;exitY=0;exitDx=0;exitDy=0;" edge="1" parent="1" target="4uRc20owQ4Cgfs499pXH-236">
          <mxGeometry width="50" height="50" relative="1" as="geometry">
            <mxPoint x="831" y="1310" as="sourcePoint" />
            <mxPoint x="751" y="1310" as="targetPoint" />
          </mxGeometry>
        </mxCell>
        <mxCell id="4uRc20owQ4Cgfs499pXH-240" value="0" style="text;html=1;align=center;verticalAlign=middle;whiteSpace=wrap;rounded=0;container=0;" vertex="1" parent="1">
          <mxGeometry x="669.5" y="1260" width="60" height="30" as="geometry" />
        </mxCell>
        <mxCell id="4uRc20owQ4Cgfs499pXH-241" value="1" style="text;html=1;align=center;verticalAlign=middle;whiteSpace=wrap;rounded=0;container=0;" vertex="1" parent="1">
          <mxGeometry x="789.5" y="1259" width="60" height="30" as="geometry" />
        </mxCell>
        <mxCell id="4uRc20owQ4Cgfs499pXH-242" value="" style="whiteSpace=wrap;html=1;aspect=fixed;container=0;" vertex="1" parent="1">
          <mxGeometry x="580" y="1190" width="80" height="80" as="geometry" />
        </mxCell>
        <mxCell id="4uRc20owQ4Cgfs499pXH-243" value="&lt;div&gt;T&lt;/div&gt;0.3205" style="text;html=1;align=center;verticalAlign=middle;whiteSpace=wrap;rounded=0;container=0;" vertex="1" parent="1">
          <mxGeometry x="590" y="1215" width="60" height="30" as="geometry" />
        </mxCell>
        <mxCell id="4uRc20owQ4Cgfs499pXH-244" value="" style="ellipse;whiteSpace=wrap;html=1;aspect=fixed;container=0;" vertex="1" parent="1">
          <mxGeometry x="651" y="1070" width="80" height="80" as="geometry" />
        </mxCell>
        <mxCell id="4uRc20owQ4Cgfs499pXH-245" value="3.7786" style="text;html=1;align=center;verticalAlign=middle;whiteSpace=wrap;rounded=0;container=0;" vertex="1" parent="1">
          <mxGeometry x="661" y="1095" width="60" height="30" as="geometry" />
        </mxCell>
        <mxCell id="4uRc20owQ4Cgfs499pXH-246" value="" style="endArrow=none;html=1;rounded=0;entryX=0;entryY=1;entryDx=0;entryDy=0;exitX=0.5;exitY=0;exitDx=0;exitDy=0;" edge="1" parent="1" source="4uRc20owQ4Cgfs499pXH-242" target="4uRc20owQ4Cgfs499pXH-244">
          <mxGeometry width="50" height="50" relative="1" as="geometry">
            <mxPoint x="631" y="1240" as="sourcePoint" />
            <mxPoint x="681" y="1190" as="targetPoint" />
          </mxGeometry>
        </mxCell>
        <mxCell id="4uRc20owQ4Cgfs499pXH-247" value="" style="endArrow=none;html=1;rounded=0;entryX=1;entryY=1;entryDx=0;entryDy=0;exitX=0.5;exitY=0;exitDx=0;exitDy=0;" edge="1" parent="1" target="4uRc20owQ4Cgfs499pXH-244">
          <mxGeometry width="50" height="50" relative="1" as="geometry">
            <mxPoint x="761" y="1190" as="sourcePoint" />
            <mxPoint x="681" y="1190" as="targetPoint" />
          </mxGeometry>
        </mxCell>
        <mxCell id="4uRc20owQ4Cgfs499pXH-248" value="0" style="text;html=1;align=center;verticalAlign=middle;whiteSpace=wrap;rounded=0;container=0;" vertex="1" parent="1">
          <mxGeometry x="599.5" y="1140" width="60" height="30" as="geometry" />
        </mxCell>
        <mxCell id="4uRc20owQ4Cgfs499pXH-249" value="1" style="text;html=1;align=center;verticalAlign=middle;whiteSpace=wrap;rounded=0;container=0;" vertex="1" parent="1">
          <mxGeometry x="719.5" y="1139" width="60" height="30" as="geometry" />
        </mxCell>
        <mxCell id="4uRc20owQ4Cgfs499pXH-250" value="" style="whiteSpace=wrap;html=1;aspect=fixed;container=0;" vertex="1" parent="1">
          <mxGeometry x="510" y="1070" width="80" height="80" as="geometry" />
        </mxCell>
        <mxCell id="4uRc20owQ4Cgfs499pXH-251" value="&lt;div&gt;&quot;&lt;/div&gt;0.4467" style="text;html=1;align=center;verticalAlign=middle;whiteSpace=wrap;rounded=0;container=0;" vertex="1" parent="1">
          <mxGeometry x="520" y="1095" width="60" height="30" as="geometry" />
        </mxCell>
        <mxCell id="4uRc20owQ4Cgfs499pXH-252" value="" style="ellipse;whiteSpace=wrap;html=1;aspect=fixed;container=0;" vertex="1" parent="1">
          <mxGeometry x="581" y="950" width="80" height="80" as="geometry" />
        </mxCell>
        <mxCell id="4uRc20owQ4Cgfs499pXH-253" value="4.2253" style="text;html=1;align=center;verticalAlign=middle;whiteSpace=wrap;rounded=0;container=0;" vertex="1" parent="1">
          <mxGeometry x="591" y="975" width="60" height="30" as="geometry" />
        </mxCell>
        <mxCell id="4uRc20owQ4Cgfs499pXH-254" value="" style="endArrow=none;html=1;rounded=0;entryX=0;entryY=1;entryDx=0;entryDy=0;exitX=0.5;exitY=0;exitDx=0;exitDy=0;" edge="1" parent="1" source="4uRc20owQ4Cgfs499pXH-250" target="4uRc20owQ4Cgfs499pXH-252">
          <mxGeometry width="50" height="50" relative="1" as="geometry">
            <mxPoint x="561" y="1120" as="sourcePoint" />
            <mxPoint x="611" y="1070" as="targetPoint" />
          </mxGeometry>
        </mxCell>
        <mxCell id="4uRc20owQ4Cgfs499pXH-255" value="" style="endArrow=none;html=1;rounded=0;entryX=1;entryY=1;entryDx=0;entryDy=0;exitX=0.5;exitY=0;exitDx=0;exitDy=0;" edge="1" parent="1" target="4uRc20owQ4Cgfs499pXH-252">
          <mxGeometry width="50" height="50" relative="1" as="geometry">
            <mxPoint x="691" y="1070" as="sourcePoint" />
            <mxPoint x="611" y="1070" as="targetPoint" />
          </mxGeometry>
        </mxCell>
        <mxCell id="4uRc20owQ4Cgfs499pXH-256" value="0" style="text;html=1;align=center;verticalAlign=middle;whiteSpace=wrap;rounded=0;container=0;" vertex="1" parent="1">
          <mxGeometry x="529.5" y="1020" width="60" height="30" as="geometry" />
        </mxCell>
        <mxCell id="4uRc20owQ4Cgfs499pXH-257" value="1" style="text;html=1;align=center;verticalAlign=middle;whiteSpace=wrap;rounded=0;container=0;" vertex="1" parent="1">
          <mxGeometry x="649.5" y="1019" width="60" height="30" as="geometry" />
        </mxCell>
        <mxCell id="4uRc20owQ4Cgfs499pXH-258" value="" style="whiteSpace=wrap;html=1;aspect=fixed;container=0;" vertex="1" parent="1">
          <mxGeometry x="440" y="950" width="80" height="80" as="geometry" />
        </mxCell>
        <mxCell id="4uRc20owQ4Cgfs499pXH-259" value="&lt;div&gt;k&lt;/div&gt;0.4537" style="text;html=1;align=center;verticalAlign=middle;whiteSpace=wrap;rounded=0;container=0;" vertex="1" parent="1">
          <mxGeometry x="450" y="975" width="60" height="30" as="geometry" />
        </mxCell>
        <mxCell id="4uRc20owQ4Cgfs499pXH-260" value="" style="ellipse;whiteSpace=wrap;html=1;aspect=fixed;container=0;" vertex="1" parent="1">
          <mxGeometry x="511" y="830" width="80" height="80" as="geometry" />
        </mxCell>
        <mxCell id="4uRc20owQ4Cgfs499pXH-261" value="4.679" style="text;html=1;align=center;verticalAlign=middle;whiteSpace=wrap;rounded=0;container=0;" vertex="1" parent="1">
          <mxGeometry x="521" y="855" width="60" height="30" as="geometry" />
        </mxCell>
        <mxCell id="4uRc20owQ4Cgfs499pXH-262" value="" style="endArrow=none;html=1;rounded=0;entryX=0;entryY=1;entryDx=0;entryDy=0;exitX=0.5;exitY=0;exitDx=0;exitDy=0;" edge="1" parent="1" source="4uRc20owQ4Cgfs499pXH-258" target="4uRc20owQ4Cgfs499pXH-260">
          <mxGeometry width="50" height="50" relative="1" as="geometry">
            <mxPoint x="491" y="1000" as="sourcePoint" />
            <mxPoint x="541" y="950" as="targetPoint" />
          </mxGeometry>
        </mxCell>
        <mxCell id="4uRc20owQ4Cgfs499pXH-263" value="" style="endArrow=none;html=1;rounded=0;entryX=1;entryY=1;entryDx=0;entryDy=0;exitX=0.5;exitY=0;exitDx=0;exitDy=0;" edge="1" parent="1" target="4uRc20owQ4Cgfs499pXH-260">
          <mxGeometry width="50" height="50" relative="1" as="geometry">
            <mxPoint x="621" y="950" as="sourcePoint" />
            <mxPoint x="541" y="950" as="targetPoint" />
          </mxGeometry>
        </mxCell>
        <mxCell id="4uRc20owQ4Cgfs499pXH-264" value="0" style="text;html=1;align=center;verticalAlign=middle;whiteSpace=wrap;rounded=0;container=0;" vertex="1" parent="1">
          <mxGeometry x="459.5" y="900" width="60" height="30" as="geometry" />
        </mxCell>
        <mxCell id="4uRc20owQ4Cgfs499pXH-265" value="1" style="text;html=1;align=center;verticalAlign=middle;whiteSpace=wrap;rounded=0;container=0;" vertex="1" parent="1">
          <mxGeometry x="579.5" y="899" width="60" height="30" as="geometry" />
        </mxCell>
        <mxCell id="4uRc20owQ4Cgfs499pXH-266" value="" style="whiteSpace=wrap;html=1;aspect=fixed;container=0;" vertex="1" parent="1">
          <mxGeometry x="370" y="830" width="80" height="80" as="geometry" />
        </mxCell>
        <mxCell id="4uRc20owQ4Cgfs499pXH-267" value="&lt;div&gt;&#39;&lt;/div&gt;0.5694" style="text;html=1;align=center;verticalAlign=middle;whiteSpace=wrap;rounded=0;container=0;" vertex="1" parent="1">
          <mxGeometry x="380" y="855" width="60" height="30" as="geometry" />
        </mxCell>
        <mxCell id="4uRc20owQ4Cgfs499pXH-268" value="" style="ellipse;whiteSpace=wrap;html=1;aspect=fixed;container=0;" vertex="1" parent="1">
          <mxGeometry x="441" y="710" width="80" height="80" as="geometry" />
        </mxCell>
        <mxCell id="4uRc20owQ4Cgfs499pXH-269" value="5.2484" style="text;html=1;align=center;verticalAlign=middle;whiteSpace=wrap;rounded=0;container=0;" vertex="1" parent="1">
          <mxGeometry x="451" y="735" width="60" height="30" as="geometry" />
        </mxCell>
        <mxCell id="4uRc20owQ4Cgfs499pXH-270" value="" style="endArrow=none;html=1;rounded=0;entryX=0;entryY=1;entryDx=0;entryDy=0;exitX=0.5;exitY=0;exitDx=0;exitDy=0;" edge="1" parent="1" source="4uRc20owQ4Cgfs499pXH-266" target="4uRc20owQ4Cgfs499pXH-268">
          <mxGeometry width="50" height="50" relative="1" as="geometry">
            <mxPoint x="421" y="880" as="sourcePoint" />
            <mxPoint x="471" y="830" as="targetPoint" />
          </mxGeometry>
        </mxCell>
        <mxCell id="4uRc20owQ4Cgfs499pXH-271" value="" style="endArrow=none;html=1;rounded=0;entryX=1;entryY=1;entryDx=0;entryDy=0;exitX=0.5;exitY=0;exitDx=0;exitDy=0;" edge="1" parent="1" target="4uRc20owQ4Cgfs499pXH-268">
          <mxGeometry width="50" height="50" relative="1" as="geometry">
            <mxPoint x="551" y="830" as="sourcePoint" />
            <mxPoint x="471" y="830" as="targetPoint" />
          </mxGeometry>
        </mxCell>
        <mxCell id="4uRc20owQ4Cgfs499pXH-272" value="0" style="text;html=1;align=center;verticalAlign=middle;whiteSpace=wrap;rounded=0;container=0;" vertex="1" parent="1">
          <mxGeometry x="389.5" y="780" width="60" height="30" as="geometry" />
        </mxCell>
        <mxCell id="4uRc20owQ4Cgfs499pXH-273" value="1" style="text;html=1;align=center;verticalAlign=middle;whiteSpace=wrap;rounded=0;container=0;" vertex="1" parent="1">
          <mxGeometry x="509.5" y="779" width="60" height="30" as="geometry" />
        </mxCell>
        <mxCell id="4uRc20owQ4Cgfs499pXH-274" value="" style="whiteSpace=wrap;html=1;aspect=fixed;container=0;" vertex="1" parent="1">
          <mxGeometry x="300" y="710" width="80" height="80" as="geometry" />
        </mxCell>
        <mxCell id="4uRc20owQ4Cgfs499pXH-275" value="&lt;div&gt;v&lt;/div&gt;0.6433" style="text;html=1;align=center;verticalAlign=middle;whiteSpace=wrap;rounded=0;container=0;" vertex="1" parent="1">
          <mxGeometry x="310" y="735" width="60" height="30" as="geometry" />
        </mxCell>
        <mxCell id="4uRc20owQ4Cgfs499pXH-276" value="" style="ellipse;whiteSpace=wrap;html=1;aspect=fixed;container=0;" vertex="1" parent="1">
          <mxGeometry x="371" y="590" width="80" height="80" as="geometry" />
        </mxCell>
        <mxCell id="4uRc20owQ4Cgfs499pXH-277" value="5.8917" style="text;html=1;align=center;verticalAlign=middle;whiteSpace=wrap;rounded=0;container=0;" vertex="1" parent="1">
          <mxGeometry x="381" y="615" width="60" height="30" as="geometry" />
        </mxCell>
        <mxCell id="4uRc20owQ4Cgfs499pXH-278" value="" style="endArrow=none;html=1;rounded=0;entryX=0;entryY=1;entryDx=0;entryDy=0;exitX=0.5;exitY=0;exitDx=0;exitDy=0;" edge="1" parent="1" source="4uRc20owQ4Cgfs499pXH-274" target="4uRc20owQ4Cgfs499pXH-276">
          <mxGeometry width="50" height="50" relative="1" as="geometry">
            <mxPoint x="351" y="760" as="sourcePoint" />
            <mxPoint x="401" y="710" as="targetPoint" />
          </mxGeometry>
        </mxCell>
        <mxCell id="4uRc20owQ4Cgfs499pXH-279" value="" style="endArrow=none;html=1;rounded=0;entryX=1;entryY=1;entryDx=0;entryDy=0;exitX=0.5;exitY=0;exitDx=0;exitDy=0;" edge="1" parent="1" target="4uRc20owQ4Cgfs499pXH-276">
          <mxGeometry width="50" height="50" relative="1" as="geometry">
            <mxPoint x="481" y="710" as="sourcePoint" />
            <mxPoint x="401" y="710" as="targetPoint" />
          </mxGeometry>
        </mxCell>
        <mxCell id="4uRc20owQ4Cgfs499pXH-280" value="0" style="text;html=1;align=center;verticalAlign=middle;whiteSpace=wrap;rounded=0;container=0;" vertex="1" parent="1">
          <mxGeometry x="319.5" y="660" width="60" height="30" as="geometry" />
        </mxCell>
        <mxCell id="4uRc20owQ4Cgfs499pXH-281" value="1" style="text;html=1;align=center;verticalAlign=middle;whiteSpace=wrap;rounded=0;container=0;" vertex="1" parent="1">
          <mxGeometry x="439.5" y="659" width="60" height="30" as="geometry" />
        </mxCell>
        <mxCell id="4uRc20owQ4Cgfs499pXH-282" value="" style="whiteSpace=wrap;html=1;aspect=fixed;container=0;" vertex="1" parent="1">
          <mxGeometry x="230" y="590" width="80" height="80" as="geometry" />
        </mxCell>
        <mxCell id="4uRc20owQ4Cgfs499pXH-283" value="&lt;div&gt;at&lt;/div&gt;0.6653" style="text;html=1;align=center;verticalAlign=middle;whiteSpace=wrap;rounded=0;container=0;" vertex="1" parent="1">
          <mxGeometry x="240" y="615" width="60" height="30" as="geometry" />
        </mxCell>
        <mxCell id="4uRc20owQ4Cgfs499pXH-284" value="" style="ellipse;whiteSpace=wrap;html=1;aspect=fixed;container=0;" vertex="1" parent="1">
          <mxGeometry x="301" y="470" width="80" height="80" as="geometry" />
        </mxCell>
        <mxCell id="4uRc20owQ4Cgfs499pXH-285" value="6.557" style="text;html=1;align=center;verticalAlign=middle;whiteSpace=wrap;rounded=0;container=0;" vertex="1" parent="1">
          <mxGeometry x="311" y="495" width="60" height="30" as="geometry" />
        </mxCell>
        <mxCell id="4uRc20owQ4Cgfs499pXH-286" value="" style="endArrow=none;html=1;rounded=0;entryX=0;entryY=1;entryDx=0;entryDy=0;exitX=0.5;exitY=0;exitDx=0;exitDy=0;" edge="1" parent="1" source="4uRc20owQ4Cgfs499pXH-282" target="4uRc20owQ4Cgfs499pXH-284">
          <mxGeometry width="50" height="50" relative="1" as="geometry">
            <mxPoint x="281" y="640" as="sourcePoint" />
            <mxPoint x="331" y="590" as="targetPoint" />
          </mxGeometry>
        </mxCell>
        <mxCell id="4uRc20owQ4Cgfs499pXH-287" value="" style="endArrow=none;html=1;rounded=0;entryX=1;entryY=1;entryDx=0;entryDy=0;exitX=0.5;exitY=0;exitDx=0;exitDy=0;" edge="1" parent="1" target="4uRc20owQ4Cgfs499pXH-284">
          <mxGeometry width="50" height="50" relative="1" as="geometry">
            <mxPoint x="411" y="590" as="sourcePoint" />
            <mxPoint x="331" y="590" as="targetPoint" />
          </mxGeometry>
        </mxCell>
        <mxCell id="4uRc20owQ4Cgfs499pXH-288" value="0" style="text;html=1;align=center;verticalAlign=middle;whiteSpace=wrap;rounded=0;container=0;" vertex="1" parent="1">
          <mxGeometry x="249.5" y="540" width="60" height="30" as="geometry" />
        </mxCell>
        <mxCell id="4uRc20owQ4Cgfs499pXH-289" value="1" style="text;html=1;align=center;verticalAlign=middle;whiteSpace=wrap;rounded=0;container=0;" vertex="1" parent="1">
          <mxGeometry x="369.5" y="539" width="60" height="30" as="geometry" />
        </mxCell>
        <mxCell id="4uRc20owQ4Cgfs499pXH-290" value="" style="whiteSpace=wrap;html=1;aspect=fixed;container=0;" vertex="1" parent="1">
          <mxGeometry x="160" y="470" width="80" height="80" as="geometry" />
        </mxCell>
        <mxCell id="4uRc20owQ4Cgfs499pXH-291" value="&lt;div&gt;en&lt;/div&gt;0.6891" style="text;html=1;align=center;verticalAlign=middle;whiteSpace=wrap;rounded=0;container=0;" vertex="1" parent="1">
          <mxGeometry x="170" y="495" width="60" height="30" as="geometry" />
        </mxCell>
        <mxCell id="4uRc20owQ4Cgfs499pXH-292" value="" style="ellipse;whiteSpace=wrap;html=1;aspect=fixed;container=0;" vertex="1" parent="1">
          <mxGeometry x="231" y="350" width="80" height="80" as="geometry" />
        </mxCell>
        <mxCell id="4uRc20owQ4Cgfs499pXH-293" value="7.2461" style="text;html=1;align=center;verticalAlign=middle;whiteSpace=wrap;rounded=0;container=0;" vertex="1" parent="1">
          <mxGeometry x="241" y="375" width="60" height="30" as="geometry" />
        </mxCell>
        <mxCell id="4uRc20owQ4Cgfs499pXH-294" value="" style="endArrow=none;html=1;rounded=0;entryX=0;entryY=1;entryDx=0;entryDy=0;exitX=0.5;exitY=0;exitDx=0;exitDy=0;" edge="1" parent="1" source="4uRc20owQ4Cgfs499pXH-290" target="4uRc20owQ4Cgfs499pXH-292">
          <mxGeometry width="50" height="50" relative="1" as="geometry">
            <mxPoint x="211" y="520" as="sourcePoint" />
            <mxPoint x="261" y="470" as="targetPoint" />
          </mxGeometry>
        </mxCell>
        <mxCell id="4uRc20owQ4Cgfs499pXH-295" value="" style="endArrow=none;html=1;rounded=0;entryX=1;entryY=1;entryDx=0;entryDy=0;exitX=0.5;exitY=0;exitDx=0;exitDy=0;" edge="1" parent="1" target="4uRc20owQ4Cgfs499pXH-292">
          <mxGeometry width="50" height="50" relative="1" as="geometry">
            <mxPoint x="341" y="470" as="sourcePoint" />
            <mxPoint x="261" y="470" as="targetPoint" />
          </mxGeometry>
        </mxCell>
        <mxCell id="4uRc20owQ4Cgfs499pXH-296" value="0" style="text;html=1;align=center;verticalAlign=middle;whiteSpace=wrap;rounded=0;container=0;" vertex="1" parent="1">
          <mxGeometry x="179.5" y="420" width="60" height="30" as="geometry" />
        </mxCell>
        <mxCell id="4uRc20owQ4Cgfs499pXH-297" value="1" style="text;html=1;align=center;verticalAlign=middle;whiteSpace=wrap;rounded=0;container=0;" vertex="1" parent="1">
          <mxGeometry x="299.5" y="419" width="60" height="30" as="geometry" />
        </mxCell>
        <mxCell id="4uRc20owQ4Cgfs499pXH-298" value="" style="whiteSpace=wrap;html=1;aspect=fixed;container=0;" vertex="1" parent="1">
          <mxGeometry x="90" y="350" width="80" height="80" as="geometry" />
        </mxCell>
        <mxCell id="4uRc20owQ4Cgfs499pXH-299" value="&lt;div&gt;on&lt;/div&gt;0.7065" style="text;html=1;align=center;verticalAlign=middle;whiteSpace=wrap;rounded=0;container=0;" vertex="1" parent="1">
          <mxGeometry x="100" y="375" width="60" height="30" as="geometry" />
        </mxCell>
        <mxCell id="4uRc20owQ4Cgfs499pXH-300" value="" style="ellipse;whiteSpace=wrap;html=1;aspect=fixed;container=0;" vertex="1" parent="1">
          <mxGeometry x="161" y="230" width="80" height="80" as="geometry" />
        </mxCell>
        <mxCell id="4uRc20owQ4Cgfs499pXH-301" value="7.9526" style="text;html=1;align=center;verticalAlign=middle;whiteSpace=wrap;rounded=0;container=0;" vertex="1" parent="1">
          <mxGeometry x="171" y="255" width="60" height="30" as="geometry" />
        </mxCell>
        <mxCell id="4uRc20owQ4Cgfs499pXH-302" value="" style="endArrow=none;html=1;rounded=0;entryX=0;entryY=1;entryDx=0;entryDy=0;exitX=0.5;exitY=0;exitDx=0;exitDy=0;" edge="1" parent="1" source="4uRc20owQ4Cgfs499pXH-298" target="4uRc20owQ4Cgfs499pXH-300">
          <mxGeometry width="50" height="50" relative="1" as="geometry">
            <mxPoint x="141" y="400" as="sourcePoint" />
            <mxPoint x="191" y="350" as="targetPoint" />
          </mxGeometry>
        </mxCell>
        <mxCell id="4uRc20owQ4Cgfs499pXH-303" value="" style="endArrow=none;html=1;rounded=0;entryX=1;entryY=1;entryDx=0;entryDy=0;exitX=0.5;exitY=0;exitDx=0;exitDy=0;" edge="1" parent="1" target="4uRc20owQ4Cgfs499pXH-300">
          <mxGeometry width="50" height="50" relative="1" as="geometry">
            <mxPoint x="271" y="350" as="sourcePoint" />
            <mxPoint x="191" y="350" as="targetPoint" />
          </mxGeometry>
        </mxCell>
        <mxCell id="4uRc20owQ4Cgfs499pXH-304" value="0" style="text;html=1;align=center;verticalAlign=middle;whiteSpace=wrap;rounded=0;container=0;" vertex="1" parent="1">
          <mxGeometry x="109.5" y="300" width="60" height="30" as="geometry" />
        </mxCell>
        <mxCell id="4uRc20owQ4Cgfs499pXH-305" value="1" style="text;html=1;align=center;verticalAlign=middle;whiteSpace=wrap;rounded=0;container=0;" vertex="1" parent="1">
          <mxGeometry x="229.5" y="299" width="60" height="30" as="geometry" />
        </mxCell>
        <mxCell id="4uRc20owQ4Cgfs499pXH-306" value="" style="whiteSpace=wrap;html=1;aspect=fixed;container=0;" vertex="1" parent="1">
          <mxGeometry x="20" y="230" width="80" height="80" as="geometry" />
        </mxCell>
        <mxCell id="4uRc20owQ4Cgfs499pXH-307" value="&lt;div&gt;nd&lt;/div&gt;0.7831" style="text;html=1;align=center;verticalAlign=middle;whiteSpace=wrap;rounded=0;container=0;" vertex="1" parent="1">
          <mxGeometry x="30" y="255" width="60" height="30" as="geometry" />
        </mxCell>
        <mxCell id="4uRc20owQ4Cgfs499pXH-308" value="" style="ellipse;whiteSpace=wrap;html=1;aspect=fixed;container=0;" vertex="1" parent="1">
          <mxGeometry x="91" y="110" width="80" height="80" as="geometry" />
        </mxCell>
        <mxCell id="4uRc20owQ4Cgfs499pXH-309" value="8.7357" style="text;html=1;align=center;verticalAlign=middle;whiteSpace=wrap;rounded=0;container=0;" vertex="1" parent="1">
          <mxGeometry x="101" y="135" width="60" height="30" as="geometry" />
        </mxCell>
        <mxCell id="4uRc20owQ4Cgfs499pXH-310" value="" style="endArrow=none;html=1;rounded=0;entryX=0;entryY=1;entryDx=0;entryDy=0;exitX=0.5;exitY=0;exitDx=0;exitDy=0;" edge="1" parent="1" source="4uRc20owQ4Cgfs499pXH-306" target="4uRc20owQ4Cgfs499pXH-308">
          <mxGeometry width="50" height="50" relative="1" as="geometry">
            <mxPoint x="71" y="280" as="sourcePoint" />
            <mxPoint x="121" y="230" as="targetPoint" />
          </mxGeometry>
        </mxCell>
        <mxCell id="4uRc20owQ4Cgfs499pXH-311" value="" style="endArrow=none;html=1;rounded=0;entryX=1;entryY=1;entryDx=0;entryDy=0;exitX=0.5;exitY=0;exitDx=0;exitDy=0;" edge="1" parent="1" target="4uRc20owQ4Cgfs499pXH-308">
          <mxGeometry width="50" height="50" relative="1" as="geometry">
            <mxPoint x="201" y="230" as="sourcePoint" />
            <mxPoint x="121" y="230" as="targetPoint" />
          </mxGeometry>
        </mxCell>
        <mxCell id="4uRc20owQ4Cgfs499pXH-312" value="0" style="text;html=1;align=center;verticalAlign=middle;whiteSpace=wrap;rounded=0;container=0;" vertex="1" parent="1">
          <mxGeometry x="39.5" y="180" width="60" height="30" as="geometry" />
        </mxCell>
        <mxCell id="4uRc20owQ4Cgfs499pXH-313" value="1" style="text;html=1;align=center;verticalAlign=middle;whiteSpace=wrap;rounded=0;container=0;" vertex="1" parent="1">
          <mxGeometry x="159.5" y="179" width="60" height="30" as="geometry" />
        </mxCell>
        <mxCell id="4uRc20owQ4Cgfs499pXH-314" value="" style="whiteSpace=wrap;html=1;aspect=fixed;container=0;" vertex="1" parent="1">
          <mxGeometry x="-50" y="110" width="80" height="80" as="geometry" />
        </mxCell>
        <mxCell id="4uRc20owQ4Cgfs499pXH-315" value="&lt;div&gt;b&lt;/div&gt;0.8528" style="text;html=1;align=center;verticalAlign=middle;whiteSpace=wrap;rounded=0;container=0;" vertex="1" parent="1">
          <mxGeometry x="-40" y="135" width="60" height="30" as="geometry" />
        </mxCell>
        <mxCell id="4uRc20owQ4Cgfs499pXH-316" value="" style="ellipse;whiteSpace=wrap;html=1;aspect=fixed;container=0;" vertex="1" parent="1">
          <mxGeometry x="21" y="-10" width="80" height="80" as="geometry" />
        </mxCell>
        <mxCell id="4uRc20owQ4Cgfs499pXH-317" value="9.5885" style="text;html=1;align=center;verticalAlign=middle;whiteSpace=wrap;rounded=0;container=0;" vertex="1" parent="1">
          <mxGeometry x="31" y="15" width="60" height="30" as="geometry" />
        </mxCell>
        <mxCell id="4uRc20owQ4Cgfs499pXH-318" value="" style="endArrow=none;html=1;rounded=0;entryX=0;entryY=1;entryDx=0;entryDy=0;exitX=0.5;exitY=0;exitDx=0;exitDy=0;" edge="1" parent="1" source="4uRc20owQ4Cgfs499pXH-314" target="4uRc20owQ4Cgfs499pXH-316">
          <mxGeometry width="50" height="50" relative="1" as="geometry">
            <mxPoint x="1" y="160" as="sourcePoint" />
            <mxPoint x="51" y="110" as="targetPoint" />
          </mxGeometry>
        </mxCell>
        <mxCell id="4uRc20owQ4Cgfs499pXH-319" value="" style="endArrow=none;html=1;rounded=0;entryX=1;entryY=1;entryDx=0;entryDy=0;exitX=0.5;exitY=0;exitDx=0;exitDy=0;" edge="1" parent="1" target="4uRc20owQ4Cgfs499pXH-316">
          <mxGeometry width="50" height="50" relative="1" as="geometry">
            <mxPoint x="131" y="110" as="sourcePoint" />
            <mxPoint x="51" y="110" as="targetPoint" />
          </mxGeometry>
        </mxCell>
        <mxCell id="4uRc20owQ4Cgfs499pXH-320" value="0" style="text;html=1;align=center;verticalAlign=middle;whiteSpace=wrap;rounded=0;container=0;" vertex="1" parent="1">
          <mxGeometry x="-30.5" y="60" width="60" height="30" as="geometry" />
        </mxCell>
        <mxCell id="4uRc20owQ4Cgfs499pXH-321" value="1" style="text;html=1;align=center;verticalAlign=middle;whiteSpace=wrap;rounded=0;container=0;" vertex="1" parent="1">
          <mxGeometry x="89.5" y="59" width="60" height="30" as="geometry" />
        </mxCell>
        <mxCell id="4uRc20owQ4Cgfs499pXH-322" value="" style="whiteSpace=wrap;html=1;aspect=fixed;container=0;" vertex="1" parent="1">
          <mxGeometry x="-120" y="-10" width="80" height="80" as="geometry" />
        </mxCell>
        <mxCell id="4uRc20owQ4Cgfs499pXH-323" value="&lt;div&gt;re&lt;/div&gt;0.8715" style="text;html=1;align=center;verticalAlign=middle;whiteSpace=wrap;rounded=0;container=0;" vertex="1" parent="1">
          <mxGeometry x="-110" y="15" width="60" height="30" as="geometry" />
        </mxCell>
        <mxCell id="4uRc20owQ4Cgfs499pXH-324" value="" style="ellipse;whiteSpace=wrap;html=1;aspect=fixed;container=0;" vertex="1" parent="1">
          <mxGeometry x="-49" y="-130" width="80" height="80" as="geometry" />
        </mxCell>
        <mxCell id="4uRc20owQ4Cgfs499pXH-325" value="10.46" style="text;html=1;align=center;verticalAlign=middle;whiteSpace=wrap;rounded=0;container=0;" vertex="1" parent="1">
          <mxGeometry x="-39" y="-105" width="60" height="30" as="geometry" />
        </mxCell>
        <mxCell id="4uRc20owQ4Cgfs499pXH-326" value="" style="endArrow=none;html=1;rounded=0;entryX=0;entryY=1;entryDx=0;entryDy=0;exitX=0.5;exitY=0;exitDx=0;exitDy=0;" edge="1" parent="1" source="4uRc20owQ4Cgfs499pXH-322" target="4uRc20owQ4Cgfs499pXH-324">
          <mxGeometry width="50" height="50" relative="1" as="geometry">
            <mxPoint x="-69" y="40" as="sourcePoint" />
            <mxPoint x="-19" y="-10" as="targetPoint" />
          </mxGeometry>
        </mxCell>
        <mxCell id="4uRc20owQ4Cgfs499pXH-327" value="" style="endArrow=none;html=1;rounded=0;entryX=1;entryY=1;entryDx=0;entryDy=0;exitX=0.5;exitY=0;exitDx=0;exitDy=0;" edge="1" parent="1" target="4uRc20owQ4Cgfs499pXH-324">
          <mxGeometry width="50" height="50" relative="1" as="geometry">
            <mxPoint x="61" y="-10" as="sourcePoint" />
            <mxPoint x="-19" y="-10" as="targetPoint" />
          </mxGeometry>
        </mxCell>
        <mxCell id="4uRc20owQ4Cgfs499pXH-328" value="0" style="text;html=1;align=center;verticalAlign=middle;whiteSpace=wrap;rounded=0;container=0;" vertex="1" parent="1">
          <mxGeometry x="-100.5" y="-60" width="60" height="30" as="geometry" />
        </mxCell>
        <mxCell id="4uRc20owQ4Cgfs499pXH-329" value="1" style="text;html=1;align=center;verticalAlign=middle;whiteSpace=wrap;rounded=0;container=0;" vertex="1" parent="1">
          <mxGeometry x="19.5" y="-61" width="60" height="30" as="geometry" />
        </mxCell>
        <mxCell id="4uRc20owQ4Cgfs499pXH-330" value="" style="whiteSpace=wrap;html=1;aspect=fixed;container=0;" vertex="1" parent="1">
          <mxGeometry x="-190" y="-130" width="80" height="80" as="geometry" />
        </mxCell>
        <mxCell id="4uRc20owQ4Cgfs499pXH-331" value="&lt;div&gt;w&lt;/div&gt;&lt;div&gt;1.0000&lt;/div&gt;" style="text;html=1;align=center;verticalAlign=middle;whiteSpace=wrap;rounded=0;container=0;" vertex="1" parent="1">
          <mxGeometry x="-180" y="-105" width="60" height="30" as="geometry" />
        </mxCell>
        <mxCell id="4uRc20owQ4Cgfs499pXH-332" value="" style="ellipse;whiteSpace=wrap;html=1;aspect=fixed;container=0;" vertex="1" parent="1">
          <mxGeometry x="-119" y="-250" width="80" height="80" as="geometry" />
        </mxCell>
        <mxCell id="4uRc20owQ4Cgfs499pXH-333" value="11.46" style="text;html=1;align=center;verticalAlign=middle;whiteSpace=wrap;rounded=0;container=0;" vertex="1" parent="1">
          <mxGeometry x="-109" y="-225" width="60" height="30" as="geometry" />
        </mxCell>
        <mxCell id="4uRc20owQ4Cgfs499pXH-334" value="" style="endArrow=none;html=1;rounded=0;entryX=0;entryY=1;entryDx=0;entryDy=0;exitX=0.5;exitY=0;exitDx=0;exitDy=0;" edge="1" parent="1" source="4uRc20owQ4Cgfs499pXH-330" target="4uRc20owQ4Cgfs499pXH-332">
          <mxGeometry width="50" height="50" relative="1" as="geometry">
            <mxPoint x="-139" y="-80" as="sourcePoint" />
            <mxPoint x="-89" y="-130" as="targetPoint" />
          </mxGeometry>
        </mxCell>
        <mxCell id="4uRc20owQ4Cgfs499pXH-335" value="" style="endArrow=none;html=1;rounded=0;entryX=1;entryY=1;entryDx=0;entryDy=0;exitX=0.5;exitY=0;exitDx=0;exitDy=0;" edge="1" parent="1" target="4uRc20owQ4Cgfs499pXH-332">
          <mxGeometry width="50" height="50" relative="1" as="geometry">
            <mxPoint x="-9" y="-130" as="sourcePoint" />
            <mxPoint x="-89" y="-130" as="targetPoint" />
          </mxGeometry>
        </mxCell>
        <mxCell id="4uRc20owQ4Cgfs499pXH-336" value="0" style="text;html=1;align=center;verticalAlign=middle;whiteSpace=wrap;rounded=0;container=0;" vertex="1" parent="1">
          <mxGeometry x="-170.5" y="-180" width="60" height="30" as="geometry" />
        </mxCell>
        <mxCell id="4uRc20owQ4Cgfs499pXH-337" value="1" style="text;html=1;align=center;verticalAlign=middle;whiteSpace=wrap;rounded=0;container=0;" vertex="1" parent="1">
          <mxGeometry x="-50.5" y="-181" width="60" height="30" as="geometry" />
        </mxCell>
      </root>
    </mxGraphModel>
  </diagram>
</mxfile>
